<svg width="812" height="475" viewBox="0 0 812 475" fill="none" xmlns="http://www.w3.org/2000/svg">
<rect x="0.5" y="0.5" width="749" height="474" rx="33.5" fill="#FFB340" stroke="black"/>
<path d="M47.8 85V56.584H54.904V49.48H47.8V44.744H50.168V42.376H57.272V37.64H45.432V40.008H43.064V42.376H40.696V49.48H35.96V56.584H40.696V85H47.8ZM43.064 82.632V54.216H38.328V51.848H43.064V44.744H45.432V51.848H52.536V54.216H45.432V82.632H43.064ZM68.1269 77.896V75.528H65.7589V58.952H68.1269V56.584H77.5989V58.952H79.9669V61.32H82.3349V73.16H79.9669V75.528H77.5989V77.896H68.1269ZM77.5989 85V82.632H79.9669V80.264H82.3349V85H89.4389V49.48H82.3349V54.216H79.9669V51.848H77.5989V49.48H68.1269V51.848H63.3909V54.216H61.0229V58.952H58.6549V75.528H61.0229V80.264H63.3909V82.632H68.1269V85H77.5989ZM82.3349 77.896V75.528H84.7029V58.952H82.3349V56.584H84.7029V51.848H87.0709V82.632H84.7029V77.896H82.3349ZM63.3909 61.32V73.16H61.0229V61.32H63.3909ZM70.4949 54.216V51.848H75.2309V54.216H70.4949ZM70.4949 82.632V80.264H75.2309V82.632H70.4949ZM104.519 85V37.64H97.4153V85H104.519ZM99.7833 82.632V40.008H102.151V82.632H99.7833ZM120.201 85V37.64H113.097V85H120.201ZM115.465 82.632V40.008H117.833V82.632H115.465ZM182.875 85V77.896H161.563V75.528H163.931V73.16H166.299V70.792H168.667V68.424H171.035V66.056H173.403V63.688H175.771V61.32H178.139V58.952H180.507V44.744H178.139V42.376H175.771V40.008H173.403V37.64H159.195V40.008H156.827V42.376H154.459V44.744H152.091V49.48H149.723V54.216H156.827V49.48H159.195V47.112H161.563V44.744H171.035V47.112H173.403V56.584H171.035V58.952H168.667V61.32H166.299V63.688H163.931V66.056H161.563V68.424H159.195V70.792H156.827V73.16H154.459V75.528H152.091V77.896H149.723V85H182.875ZM152.091 82.632V80.264H154.459V77.896H156.827V75.528H159.195V80.264H180.507V82.632H152.091ZM171.035 42.376H161.563V40.008H171.035V42.376ZM175.771 56.584V47.112H178.139V56.584H175.771ZM201.738 77.896V75.528H199.37V68.424H197.002V54.216H199.37V47.112H201.738V44.744H213.578V47.112H215.946V54.216H218.314V68.424H215.946V75.528H213.578V77.896H201.738ZM215.946 85V82.632H220.682V77.896H223.05V70.792H225.418V51.848H223.05V44.744H220.682V40.008H215.946V37.64H199.37V40.008H194.634V44.744H192.266V51.848H189.898V70.792H192.266V77.896H194.634V82.632H199.37V85H215.946ZM220.682 68.424V54.216H223.05V68.424H220.682ZM194.634 54.216V68.424H192.266V54.216H194.634ZM201.738 82.632V80.264H213.578V82.632H201.738ZM213.578 42.376H201.738V40.008H213.578V42.376ZM194.634 75.528V70.792H197.002V75.528H194.634ZM197.002 47.112V51.848H194.634V47.112H197.002ZM220.682 51.848H218.314V47.112H220.682V51.848ZM218.314 75.528V70.792H220.682V75.528H218.314ZM197.002 42.376H199.37V44.744H197.002V42.376ZM215.946 80.264V77.896H218.314V80.264H215.946ZM218.314 44.744H215.946V42.376H218.314V44.744ZM197.002 80.264V77.896H199.37V80.264H197.002ZM265.836 85V77.896H244.524V75.528H246.892V73.16H249.26V70.792H251.628V68.424H253.996V66.056H256.364V63.688H258.732V61.32H261.1V58.952H263.468V44.744H261.1V42.376H258.732V40.008H256.364V37.64H242.156V40.008H239.788V42.376H237.42V44.744H235.052V49.48H232.684V54.216H239.788V49.48H242.156V47.112H244.524V44.744H253.996V47.112H256.364V56.584H253.996V58.952H251.628V61.32H249.26V63.688H246.892V66.056H244.524V68.424H242.156V70.792H239.788V73.16H237.42V75.528H235.052V77.896H232.684V85H265.836ZM235.052 82.632V80.264H237.42V77.896H239.788V75.528H242.156V80.264H263.468V82.632H235.052ZM253.996 42.376H244.524V40.008H253.996V42.376ZM258.732 56.584V47.112H261.1V56.584H258.732ZM284.699 77.896V75.528H282.331V68.424H279.963V54.216H282.331V47.112H284.699V44.744H296.539V47.112H298.907V54.216H301.275V68.424H298.907V75.528H296.539V77.896H284.699ZM298.907 85V82.632H303.643V77.896H306.011V70.792H308.379V51.848H306.011V44.744H303.643V40.008H298.907V37.64H282.331V40.008H277.595V44.744H275.227V51.848H272.859V70.792H275.227V77.896H277.595V82.632H282.331V85H298.907ZM303.643 68.424V54.216H306.011V68.424H303.643ZM277.595 54.216V68.424H275.227V54.216H277.595ZM284.699 82.632V80.264H296.539V82.632H284.699ZM296.539 42.376H284.699V40.008H296.539V42.376ZM277.595 75.528V70.792H279.963V75.528H277.595ZM279.963 47.112V51.848H277.595V47.112H279.963ZM303.643 51.848H301.275V47.112H303.643V51.848ZM301.275 75.528V70.792H303.643V75.528H301.275ZM279.963 42.376H282.331V44.744H279.963V42.376ZM298.907 80.264V77.896H301.275V80.264H298.907ZM301.275 44.744H298.907V42.376H301.275V44.744ZM279.963 80.264V77.896H282.331V80.264H279.963Z" fill="black"/>
<path d="M46.8711 193V191.344H41.9023V189.688H40.2461V188.031H38.5898V186.375H36.9336V183.062H35.2773V169.812H36.9336V166.5H38.5898V164.844H40.2461V163.188H41.9023V161.531H46.8711V159.875H55.1523V161.531H60.1211V163.188H61.7773V166.5H63.4336V168.156H65.0898V169.812H58.4648V168.156H56.8086V166.5H53.4961V164.844H48.5273V166.5H45.2148V168.156H43.5586V169.812H41.9023V173.125H40.2461V179.75H41.9023V183.062H43.5586V184.719H45.2148V186.375H48.5273V188.031H53.4961V186.375H56.8086V184.719H58.4648V183.062H60.1211V179.75H50.1836V174.781H65.0898V184.719H63.4336V186.375H61.7773V189.688H60.1211V191.344H55.1523V193H46.8711ZM70.2656 193V168.156H75.2344V171.469H76.8906V169.812H78.5469V168.156H85.1719V169.812H86.8281V171.469H88.4844V174.781H86.8281V176.438H85.1719V174.781H83.5156V173.125H78.5469V174.781H76.8906V176.438H75.2344V193H70.2656ZM104.012 188.031V186.375H105.668V184.719H107.324V176.438H105.668V174.781H104.012V173.125H97.3867V174.781H95.7305V186.375H97.3867V188.031H104.012ZM97.3867 193V191.344H94.0742V189.688H92.418V186.375H90.7617V174.781H92.418V171.469H94.0742V169.812H97.3867V168.156H104.012V169.812H105.668V171.469H107.324V168.156H112.293V193H107.324V189.688H105.668V191.344H104.012V193H97.3867ZM130.149 188.031V186.375H131.806V184.719H133.462V176.438H131.806V174.781H130.149V173.125H123.524V174.781H121.868V186.375H123.524V188.031H130.149ZM123.524 193V191.344H120.212V189.688H118.556V186.375H116.899V174.781H118.556V171.469H120.212V169.812H123.524V168.156H130.149V169.812H131.806V171.469H133.462V159.875H138.431V193H133.462V189.688H131.806V191.344H130.149V193H123.524ZM147.488 193V191.344H145.832V189.688H144.176V168.156H149.145V186.375H150.801V188.031H155.77V186.375H157.426V184.719H159.082V168.156H164.051V193H159.082V189.688H157.426V191.344H155.77V193H147.488ZM182.114 188.031V186.375H183.771V184.719H185.427V176.438H183.771V174.781H182.114V173.125H175.489V174.781H173.833V186.375H175.489V188.031H182.114ZM175.489 193V191.344H172.177V189.688H170.521V186.375H168.864V174.781H170.521V171.469H172.177V169.812H175.489V168.156H182.114V169.812H183.771V171.469H185.427V168.156H190.396V193H185.427V189.688H183.771V191.344H182.114V193H175.489ZM198.418 193V173.125H195.105V168.156H198.418V161.531H203.387V168.156H210.012V173.125H203.387V193H198.418ZM226.678 178.094V174.781H225.021V173.125H218.396V174.781H216.74V178.094H226.678ZM218.396 193V191.344H215.084V189.688H213.428V186.375H211.771V174.781H213.428V171.469H215.084V169.812H218.396V168.156H225.021V169.812H228.334V171.469H229.99V174.781H231.646V181.406H216.74V186.375H218.396V188.031H225.021V186.375H226.678V184.719H231.646V188.031H229.99V189.688H228.334V191.344H225.021V193H218.396ZM251.78 193V159.875H260.062V164.844H261.718V168.156H263.374V173.125H265.03V178.094H266.687V184.719H268.343V178.094H269.999V173.125H271.655V168.156H273.312V164.844H274.968V159.875H283.249V193H278.28V168.156H276.624V171.469H274.968V178.094H273.312V184.719H271.655V189.688H269.999V193H265.03V189.688H263.374V184.719H261.718V178.094H260.062V171.469H258.405V168.156H256.749V193H251.78ZM289.253 193V159.875H294.222V188.031H310.784V193H289.253ZM314.666 193V188.031H319.635V193H314.666ZM323.517 193V188.031H328.485V193H323.517ZM332.367 193V188.031H337.336V193H332.367ZM341.218 193V188.031H346.187V193H341.218ZM350.068 193V188.031H355.037V193H350.068ZM358.919 193V188.031H363.888V193H358.919ZM367.77 193V188.031H372.738V193H367.77ZM376.62 193V188.031H381.589V193H376.62ZM385.471 193V188.031H390.439V193H385.471ZM394.321 193V188.031H399.29V193H394.321ZM403.172 193V188.031H408.141V193H403.172ZM412.022 193V188.031H416.991V193H412.022ZM420.873 193V188.031H425.842V193H420.873ZM429.724 193V188.031H434.692V193H429.724ZM438.574 193V188.031H443.543V193H438.574ZM447.425 193V188.031H452.394V193H447.425ZM456.275 193V188.031H461.244V193H456.275ZM465.126 193V188.031H470.095V193H465.126ZM473.977 193V188.031H478.945V193H473.977ZM482.827 193V188.031H487.796V193H482.827ZM491.678 193V188.031H496.646V193H491.678ZM500.528 193V188.031H505.497V193H500.528ZM509.379 193V188.031H514.348V193H509.379ZM518.229 193V188.031H523.198V193H518.229ZM527.08 193V188.031H532.049V193H527.08ZM535.931 193V188.031H540.899V193H535.931ZM544.781 193V188.031H549.75V193H544.781ZM553.632 193V188.031H558.601V193H553.632ZM562.482 193V188.031H567.451V193H562.482ZM571.333 193V188.031H576.302V193H571.333ZM580.184 193V188.031H585.152V193H580.184ZM589.034 193V188.031H594.003V193H589.034ZM615.482 188.031V186.375H617.139V179.75H615.482V178.094H607.201V179.75H605.545V186.375H607.201V188.031H615.482ZM605.545 193V191.344H602.232V188.031H600.576V183.062H598.92V169.812H600.576V164.844H602.232V161.531H605.545V159.875H617.139V161.531H620.451V164.844H622.107V168.156H617.139V166.5H615.482V164.844H607.201V166.5H605.545V171.469H603.889V176.438H605.545V174.781H607.201V173.125H618.795V174.781H620.451V176.438H622.107V188.031H620.451V191.344H617.139V193H605.545ZM626.559 193V188.031H631.527V193H626.559ZM652.903 188.031V186.375H654.56V179.75H652.903V178.094H651.247V176.438H644.622V178.094H642.966V179.75H641.31V186.375H642.966V188.031H652.903ZM651.247 173.125V171.469H652.903V166.5H651.247V164.844H644.622V166.5H642.966V171.469H644.622V173.125H651.247ZM642.966 193V191.344H639.653V189.688H637.997V186.375H636.341V179.75H637.997V176.438H639.653V174.781H641.31V173.125H639.653V171.469H637.997V166.5H639.653V163.188H641.31V161.531H644.622V159.875H651.247V161.531H654.56V163.188H656.216V166.5H657.872V171.469H656.216V173.125H654.56V174.781H656.216V176.438H657.872V179.75H659.528V186.375H657.872V189.688H656.216V191.344H652.903V193H642.966ZM680.801 188.031V186.375H682.457V179.75H680.801V178.094H672.52V179.75H670.863V186.375H672.52V188.031H680.801ZM670.863 193V191.344H667.551V188.031H665.895V183.062H664.238V169.812H665.895V164.844H667.551V161.531H670.863V159.875H682.457V161.531H685.77V164.844H687.426V168.156H682.457V166.5H680.801V164.844H672.52V166.5H670.863V171.469H669.207V176.438H670.863V174.781H672.52V173.125H684.113V174.781H685.77V176.438H687.426V188.031H685.77V191.344H682.457V193H670.863ZM697.156 193V186.375H698.812V183.062H700.469V178.094H702.125V174.781H703.781V171.469H705.438V168.156H707.094V166.5H708.75V164.844H690.531V159.875H715.375V164.844H713.719V168.156H712.062V169.812H710.406V173.125H708.75V176.438H707.094V179.75H705.438V183.062H703.781V188.031H702.125V193H697.156ZM55.4629 231.094V229.438H53.8066V226.125H52.1504V222.812H50.4941V219.5H48.8379V222.812H47.1816V226.125H45.5254V229.438H43.8691V231.094H55.4629ZM33.9316 246V241.031H35.5879V237.719H37.2441V232.75H38.9004V229.438H40.5566V226.125H42.2129V222.812H43.8691V219.5H45.5254V216.188H47.1816V212.875H52.1504V216.188H53.8066V219.5H55.4629V222.812H57.1191V226.125H58.7754V229.438H60.4316V232.75H62.0879V237.719H63.7441V241.031H65.4004V246H60.4316V242.688H58.7754V239.375H57.1191V236.062H42.2129V239.375H40.5566V242.688H38.9004V246H33.9316ZM83.1016 241.031V239.375H84.7578V237.719H86.4141V229.438H84.7578V227.781H83.1016V226.125H76.4766V227.781H74.8203V239.375H76.4766V241.031H83.1016ZM76.4766 246V244.344H73.1641V242.688H71.5078V239.375H69.8516V227.781H71.5078V224.469H73.1641V222.812H76.4766V221.156H83.1016V222.812H84.7578V224.469H86.4141V212.875H91.3828V246H86.4141V242.688H84.7578V244.344H83.1016V246H76.4766ZM103.028 246V242.688H101.372V237.719H99.7158V231.094H98.0596V226.125H96.4033V221.156H101.372V224.469H103.028V231.094H104.685V236.062H106.341V241.031H107.997V236.062H109.653V231.094H111.31V224.469H112.966V221.156H117.935V226.125H116.278V231.094H114.622V237.719H112.966V242.688H111.31V246H103.028ZM135.325 241.031V239.375H136.981V237.719H138.638V229.438H136.981V227.781H135.325V226.125H128.7V227.781H127.044V239.375H128.7V241.031H135.325ZM128.7 246V244.344H125.388V242.688H123.731V239.375H122.075V227.781H123.731V224.469H125.388V222.812H128.7V221.156H135.325V222.812H136.981V224.469H138.638V221.156H143.606V246H138.638V242.688H136.981V244.344H135.325V246H128.7ZM148.989 246V221.156H153.958V224.469H155.614V222.812H157.271V221.156H162.239V222.812H165.552V224.469H167.208V227.781H168.864V246H163.896V227.781H162.239V226.125H157.271V227.781H155.614V229.438H153.958V246H148.989ZM180.147 246V244.344H176.835V242.688H175.179V239.375H173.522V227.781H175.179V224.469H176.835V222.812H180.147V221.156H186.772V222.812H190.085V224.469H191.741V229.438H188.429V227.781H186.772V226.125H180.147V227.781H178.491V239.375H180.147V241.031H186.772V239.375H188.429V237.719H191.741V242.688H190.085V244.344H186.772V246H180.147ZM211.254 231.094V227.781H209.598V226.125H202.973V227.781H201.316V231.094H211.254ZM202.973 246V244.344H199.66V242.688H198.004V239.375H196.348V227.781H198.004V224.469H199.66V222.812H202.973V221.156H209.598V222.812H212.91V224.469H214.566V227.781H216.223V234.406H201.316V239.375H202.973V241.031H209.598V239.375H211.254V237.719H216.223V241.031H214.566V242.688H212.91V244.344H209.598V246H202.973ZM233.613 241.031V239.375H235.27V237.719H236.926V229.438H235.27V227.781H233.613V226.125H226.988V227.781H225.332V239.375H226.988V241.031H233.613ZM226.988 246V244.344H223.676V242.688H222.02V239.375H220.363V227.781H222.02V224.469H223.676V222.812H226.988V221.156H233.613V222.812H235.27V224.469H236.926V212.875H241.895V246H236.926V242.688H235.27V244.344H233.613V246H226.988ZM282.421 231.094V229.438H280.765V226.125H279.108V222.812H277.452V219.5H275.796V222.812H274.14V226.125H272.483V229.438H270.827V231.094H282.421ZM260.89 246V241.031H262.546V237.719H264.202V232.75H265.858V229.438H267.515V226.125H269.171V222.812H270.827V219.5H272.483V216.188H274.14V212.875H279.108V216.188H280.765V219.5H282.421V222.812H284.077V226.125H285.733V229.438H287.39V232.75H289.046V237.719H290.702V241.031H292.358V246H287.39V242.688H285.733V239.375H284.077V236.062H269.171V239.375H267.515V242.688H265.858V246H260.89ZM295.671 246V212.875H300.64V246H295.671ZM319.272 241.031V239.375H320.929V237.719H322.585V229.438H320.929V227.781H319.272V226.125H312.647V227.781H310.991V239.375H312.647V241.031H319.272ZM312.647 255.938V254.281H309.335V252.625H307.679V250.969H306.022V249.312H307.679V247.656H310.991V249.312H312.647V250.969H320.929V249.312H322.585V242.688H320.929V244.344H319.272V246H312.647V244.344H309.335V242.688H307.679V239.375H306.022V227.781H307.679V224.469H309.335V222.812H312.647V221.156H319.272V222.812H320.929V224.469H322.585V221.156H327.554V250.969H325.897V252.625H324.241V254.281H320.929V255.938H312.647ZM345.928 241.031V239.375H347.584V227.781H345.928V226.125H339.303V227.781H337.646V239.375H339.303V241.031H345.928ZM339.303 246V244.344H335.99V242.688H334.334V239.375H332.678V227.781H334.334V224.469H335.99V222.812H339.303V221.156H345.928V222.812H349.24V224.469H350.896V227.781H352.553V239.375H350.896V242.688H349.24V244.344H345.928V246H339.303ZM357.418 246V221.156H362.387V224.469H364.043V222.812H365.699V221.156H372.324V222.812H373.98V224.469H375.637V227.781H373.98V229.438H372.324V227.781H370.668V226.125H365.699V227.781H364.043V229.438H362.387V246H357.418ZM377.966 246V221.156H382.935V246H377.966ZM377.966 217.844V212.875H382.935V217.844H377.966ZM391.371 246V226.125H388.059V221.156H391.371V214.531H396.34V221.156H402.965V226.125H396.34V246H391.371ZM407.623 246V212.875H412.592V224.469H414.248V222.812H415.904V221.156H422.529V222.812H425.842V224.469H427.498V227.781H429.154V246H424.186V227.781H422.529V226.125H415.904V227.781H414.248V229.438H412.592V246H407.623ZM434.382 246V221.156H439.351V224.469H441.007V222.812H442.663V221.156H447.632V222.812H449.288V224.469H452.601V222.812H454.257V221.156H460.882V222.812H462.538V224.469H464.194V227.781H465.851V246H460.882V227.781H459.226V226.125H454.257V227.781H452.601V246H447.632V227.781H445.976V226.125H442.663V227.781H441.007V229.438H439.351V246H434.382ZM474.132 246V244.344H472.476V242.688H470.819V239.375H472.476V237.719H474.132V239.375H475.788V241.031H477.444V242.688H480.757V241.031H482.413V237.719H480.757V236.062H479.101V234.406H475.788V232.75H474.132V231.094H472.476V229.438H470.819V224.469H472.476V222.812H474.132V221.156H484.069V222.812H485.726V227.781H482.413V226.125H480.757V224.469H477.444V226.125H475.788V227.781H477.444V229.438H479.101V231.094H482.413V232.75H484.069V234.406H485.726V236.062H487.382V242.688H485.726V244.344H484.069V246H474.132ZM491.005 246V241.031H495.974V246H491.005ZM499.855 246V241.031H504.824V246H499.855ZM508.706 246V241.031H513.675V246H508.706ZM517.557 246V241.031H522.525V246H517.557ZM526.407 246V241.031H531.376V246H526.407ZM535.258 246V241.031H540.227V246H535.258ZM544.108 246V241.031H549.077V246H544.108ZM552.959 246V241.031H557.928V246H552.959ZM561.81 246V241.031H566.778V246H561.81ZM570.66 246V241.031H575.629V246H570.66ZM579.511 246V241.031H584.479V246H579.511ZM588.361 246V241.031H593.33V246H588.361ZM614.81 241.031V239.375H616.466V232.75H614.81V231.094H606.528V232.75H604.872V239.375H606.528V241.031H614.81ZM604.872 246V244.344H601.56V241.031H599.903V236.062H598.247V222.812H599.903V217.844H601.56V214.531H604.872V212.875H616.466V214.531H619.778V217.844H621.435V221.156H616.466V219.5H614.81V217.844H606.528V219.5H604.872V224.469H603.216V229.438H604.872V227.781H606.528V226.125H618.122V227.781H619.778V229.438H621.435V241.031H619.778V244.344H616.466V246H604.872ZM625.886 246V241.031H630.854V246H625.886ZM652.334 241.031V239.375H653.99V234.406H655.646V224.469H653.99V219.5H652.334V217.844H644.053V219.5H642.396V224.469H640.74V234.406H642.396V239.375H644.053V241.031H652.334ZM642.396 246V244.344H639.084V241.031H637.428V236.062H635.771V222.812H637.428V217.844H639.084V214.531H642.396V212.875H653.99V214.531H657.303V217.844H658.959V222.812H660.615V236.062H658.959V241.031H657.303V244.344H653.99V246H642.396ZM679.248 232.75V221.156H677.592V222.812H675.936V224.469H674.279V226.125H672.623V227.781H670.967V229.438H669.311V232.75H679.248ZM679.248 246V237.719H664.342V227.781H665.998V226.125H667.654V224.469H669.311V222.812H670.967V221.156H672.623V219.5H674.279V217.844H675.936V216.188H677.592V214.531H679.248V212.875H684.217V232.75H689.186V237.719H684.217V246H679.248ZM709.682 241.031V239.375H711.338V232.75H709.682V231.094H701.4V232.75H699.744V239.375H701.4V241.031H709.682ZM699.744 246V244.344H696.432V241.031H694.775V236.062H693.119V222.812H694.775V217.844H696.432V214.531H699.744V212.875H711.338V214.531H714.65V217.844H716.307V221.156H711.338V219.5H709.682V217.844H701.4V219.5H699.744V224.469H698.088V229.438H699.744V227.781H701.4V226.125H712.994V227.781H714.65V229.438H716.307V241.031H714.65V244.344H711.338V246H699.744ZM35.9502 299V265.875H55.8252V270.844H40.9189V279.125H55.8252V284.094H40.9189V299H35.9502ZM64.1582 299V297.344H62.502V295.688H60.8457V274.156H65.8145V292.375H67.4707V294.031H72.4395V292.375H74.0957V290.719H75.752V274.156H80.7207V299H75.752V295.688H74.0957V297.344H72.4395V299H64.1582ZM86.1035 299V274.156H91.0723V277.469H92.7285V275.812H94.3848V274.156H99.3535V275.812H102.666V277.469H104.322V280.781H105.979V299H101.01V280.781H99.3535V279.125H94.3848V280.781H92.7285V282.438H91.0723V299H86.1035ZM123.68 294.031V292.375H125.336V290.719H126.992V282.438H125.336V280.781H123.68V279.125H117.055V280.781H115.398V292.375H117.055V294.031H123.68ZM117.055 299V297.344H113.742V295.688H112.086V292.375H110.43V280.781H112.086V277.469H113.742V275.812H117.055V274.156H123.68V275.812H125.336V277.469H126.992V265.875H131.961V299H126.992V295.688H125.336V297.344H123.68V299H117.055ZM149.041 294.031V292.375H150.697V290.719H152.354V282.438H150.697V280.781H149.041V279.125H142.416V280.781H140.76V292.375H142.416V294.031H149.041ZM142.416 299V297.344H139.104V295.688H137.447V292.375H135.791V280.781H137.447V277.469H139.104V275.812H142.416V274.156H149.041V275.812H150.697V277.469H152.354V274.156H157.322V299H152.354V295.688H150.697V297.344H149.041V299H142.416ZM162.705 299V274.156H167.674V277.469H169.33V275.812H170.986V274.156H175.955V275.812H177.611V277.469H180.924V275.812H182.58V274.156H189.205V275.812H190.861V277.469H192.518V280.781H194.174V299H189.205V280.781H187.549V279.125H182.58V280.781H180.924V299H175.955V280.781H174.299V279.125H170.986V280.781H169.33V282.438H167.674V299H162.705ZM213.738 284.094V280.781H212.082V279.125H205.457V280.781H203.801V284.094H213.738ZM205.457 299V297.344H202.145V295.688H200.488V292.375H198.832V280.781H200.488V277.469H202.145V275.812H205.457V274.156H212.082V275.812H215.395V277.469H217.051V280.781H218.707V287.406H203.801V292.375H205.457V294.031H212.082V292.375H213.738V290.719H218.707V294.031H217.051V295.688H215.395V297.344H212.082V299H205.457ZM223.624 299V274.156H228.593V277.469H230.249V275.812H231.905V274.156H236.874V275.812H240.187V277.469H241.843V280.781H243.499V299H238.53V280.781H236.874V279.125H231.905V280.781H230.249V282.438H228.593V299H223.624ZM251.366 299V279.125H248.054V274.156H251.366V267.531H256.335V274.156H262.96V279.125H256.335V299H251.366ZM277.97 294.031V292.375H279.626V290.719H281.282V282.438H279.626V280.781H277.97V279.125H271.345V280.781H269.688V292.375H271.345V294.031H277.97ZM271.345 299V297.344H268.032V295.688H266.376V292.375H264.72V280.781H266.376V277.469H268.032V275.812H271.345V274.156H277.97V275.812H279.626V277.469H281.282V274.156H286.251V299H281.282V295.688H279.626V297.344H277.97V299H271.345ZM291.841 299V265.875H296.81V299H291.841ZM305.66 299V297.344H304.004V295.688H302.348V292.375H304.004V290.719H305.66V292.375H307.316V294.031H308.973V295.688H312.285V294.031H313.941V290.719H312.285V289.062H310.629V287.406H307.316V285.75H305.66V284.094H304.004V282.438H302.348V277.469H304.004V275.812H305.66V274.156H315.598V275.812H317.254V280.781H313.941V279.125H312.285V277.469H308.973V279.125H307.316V280.781H308.973V282.438H310.629V284.094H313.941V285.75H315.598V287.406H317.254V289.062H318.91V295.688H317.254V297.344H315.598V299H305.66ZM351.569 294.031V292.375H353.226V280.781H351.569V279.125H344.944V280.781H343.288V292.375H344.944V294.031H351.569ZM344.944 299V297.344H341.632V295.688H339.976V292.375H338.319V280.781H339.976V277.469H341.632V275.812H344.944V274.156H351.569V275.812H354.882V277.469H356.538V280.781H358.194V292.375H356.538V295.688H354.882V297.344H351.569V299H344.944ZM363.577 299V279.125H360.265V274.156H363.577V269.188H365.233V267.531H366.89V265.875H375.171V269.188H370.202V270.844H368.546V274.156H373.515V279.125H368.546V299H363.577ZM407.105 299V297.344H402.137V295.688H400.48V294.031H398.824V292.375H397.168V289.062H395.512V275.812H397.168V272.5H398.824V270.844H400.48V269.188H402.137V267.531H407.105V265.875H415.387V267.531H420.355V269.188H422.012V272.5H423.668V274.156H425.324V275.812H418.699V274.156H417.043V272.5H413.73V270.844H408.762V272.5H405.449V274.156H403.793V275.812H402.137V279.125H400.48V285.75H402.137V289.062H403.793V290.719H405.449V292.375H408.762V294.031H413.73V292.375H417.043V290.719H418.699V289.062H425.324V290.719H423.668V292.375H422.012V295.688H420.355V297.344H415.387V299H407.105ZM436.763 299V297.344H433.45V295.688H431.794V294.031H430.138V290.719H435.106V292.375H436.763V294.031H445.044V292.375H446.7V287.406H445.044V285.75H443.388V284.094H438.419V282.438H433.45V280.781H431.794V279.125H430.138V270.844H431.794V269.188H433.45V267.531H435.106V265.875H446.7V267.531H448.356V269.188H450.013V272.5H445.044V270.844H436.763V272.5H435.106V277.469H438.419V279.125H443.388V280.781H446.7V282.438H450.013V285.75H451.669V294.031H450.013V295.688H448.356V297.344H445.044V299H436.763ZM455.499 299V294.031H460.468V299H455.499ZM464.35 299V294.031H469.318V299H464.35ZM473.2 299V294.031H478.169V299H473.2ZM482.051 299V294.031H487.02V299H482.051ZM490.901 299V294.031H495.87V299H490.901ZM499.752 299V294.031H504.721V299H499.752ZM508.603 299V294.031H513.571V299H508.603ZM517.453 299V294.031H522.422V299H517.453ZM526.304 299V294.031H531.272V299H526.304ZM535.154 299V294.031H540.123V299H535.154ZM544.005 299V294.031H548.974V299H544.005ZM552.855 299V294.031H557.824V299H552.855ZM561.706 299V294.031H566.675V299H561.706ZM570.557 299V294.031H575.525V299H570.557ZM579.407 299V294.031H584.376V299H579.407ZM588.258 299V294.031H593.227V299H588.258ZM614.706 294.031V292.375H616.362V285.75H614.706V284.094H606.425V285.75H604.769V292.375H606.425V294.031H614.706ZM604.769 299V297.344H601.456V294.031H599.8V289.062H598.144V275.812H599.8V270.844H601.456V267.531H604.769V265.875H616.362V267.531H619.675V270.844H621.331V274.156H616.362V272.5H614.706V270.844H606.425V272.5H604.769V277.469H603.112V282.438H604.769V280.781H606.425V279.125H618.019V280.781H619.675V282.438H621.331V294.031H619.675V297.344H616.362V299H604.769ZM625.782 299V294.031H630.751V299H625.782ZM652.23 294.031V292.375H653.887V287.406H655.543V277.469H653.887V272.5H652.23V270.844H643.949V272.5H642.293V277.469H640.637V287.406H642.293V292.375H643.949V294.031H652.23ZM642.293 299V297.344H638.98V294.031H637.324V289.062H635.668V275.812H637.324V270.844H638.98V267.531H642.293V265.875H653.887V267.531H657.199V270.844H658.855V275.812H660.512V289.062H658.855V294.031H657.199V297.344H653.887V299H642.293ZM681.991 294.031V292.375H683.647V287.406H685.304V277.469H683.647V272.5H681.991V270.844H673.71V272.5H672.054V277.469H670.397V287.406H672.054V292.375H673.71V294.031H681.991ZM672.054 299V297.344H668.741V294.031H667.085V289.062H665.429V275.812H667.085V270.844H668.741V267.531H672.054V265.875H683.647V267.531H686.96V270.844H688.616V275.812H690.272V289.062H688.616V294.031H686.96V297.344H683.647V299H672.054ZM710.406 280.781V279.125H712.062V272.5H710.406V270.844H702.125V272.5H700.469V279.125H702.125V280.781H710.406ZM700.469 299V297.344H697.156V294.031H695.5V290.719H700.469V292.375H702.125V294.031H710.406V292.375H712.062V287.406H713.719V282.438H712.062V284.094H710.406V285.75H698.812V284.094H697.156V280.781H695.5V272.5H697.156V267.531H700.469V265.875H712.062V267.531H715.375V270.844H717.031V275.812H718.688V289.062H717.031V294.031H715.375V297.344H712.062V299H700.469ZM42.8857 352V348.688H41.2295V343.719H39.5732V337.094H37.917V330.469H36.2607V325.5H34.6045V318.875H39.5732V325.5H41.2295V332.125H42.8857V337.094H44.542V343.719H46.1982V337.094H47.8545V332.125H49.5107V325.5H51.167V318.875H56.1357V325.5H57.792V332.125H59.4482V337.094H61.1045V343.719H62.7607V337.094H64.417V332.125H66.0732V325.5H67.7295V318.875H72.6982V325.5H71.042V330.469H69.3857V337.094H67.7295V343.719H66.0732V348.688H64.417V352H59.4482V348.688H57.792V343.719H56.1357V337.094H54.4795V330.469H52.8232V337.094H51.167V343.719H49.5107V348.688H47.8545V352H42.8857ZM74.9756 352V327.156H79.9443V330.469H81.6006V328.812H83.2568V327.156H89.8818V328.812H91.5381V330.469H93.1943V333.781H91.5381V335.438H89.8818V333.781H88.2256V332.125H83.2568V333.781H81.6006V335.438H79.9443V352H74.9756ZM95.5234 352V327.156H100.492V352H95.5234ZM95.5234 323.844V318.875H100.492V323.844H95.5234ZM108.929 352V332.125H105.616V327.156H108.929V320.531H113.897V327.156H120.522V332.125H113.897V352H108.929ZM125.181 352V327.156H130.149V352H125.181ZM125.181 323.844V318.875H130.149V323.844H125.181ZM135.946 352V327.156H140.915V330.469H142.571V328.812H144.228V327.156H149.196V328.812H152.509V330.469H154.165V333.781H155.821V352H150.853V333.781H149.196V332.125H144.228V333.781H142.571V335.438H140.915V352H135.946ZM173.885 347.031V345.375H175.541V343.719H177.197V335.438H175.541V333.781H173.885V332.125H167.26V333.781H165.604V345.375H167.26V347.031H173.885ZM167.26 361.938V360.281H163.947V358.625H162.291V356.969H160.635V355.312H162.291V353.656H165.604V355.312H167.26V356.969H175.541V355.312H177.197V348.688H175.541V350.344H173.885V352H167.26V350.344H163.947V348.688H162.291V345.375H160.635V333.781H162.291V330.469H163.947V328.812H167.26V327.156H173.885V328.812H175.541V330.469H177.197V327.156H182.166V356.969H180.51V358.625H178.854V360.281H175.541V361.938H167.26ZM215.55 347.031V345.375H217.206V343.719H218.862V335.438H217.206V333.781H215.55V332.125H208.925V333.781H207.269V345.375H208.925V347.031H215.55ZM208.925 352V350.344H205.612V348.688H203.956V345.375H202.3V333.781H203.956V330.469H205.612V328.812H208.925V327.156H215.55V328.812H217.206V330.469H218.862V327.156H223.831V352H218.862V348.688H217.206V350.344H215.55V352H208.925ZM244.327 347.031V345.375H245.983V333.781H244.327V332.125H237.702V333.781H236.046V335.438H234.39V343.719H236.046V345.375H237.702V347.031H244.327ZM229.421 352V318.875H234.39V330.469H236.046V328.812H237.702V327.156H244.327V328.812H247.64V330.469H249.296V333.781H250.952V345.375H249.296V348.688H247.64V350.344H244.327V352H237.702V350.344H236.046V348.688H234.39V352H229.421ZM268.291 347.031V345.375H269.947V333.781H268.291V332.125H261.666V333.781H260.01V345.375H261.666V347.031H268.291ZM261.666 352V350.344H258.354V348.688H256.697V345.375H255.041V333.781H256.697V330.469H258.354V328.812H261.666V327.156H268.291V328.812H271.604V330.469H273.26V333.781H274.916V345.375H273.26V348.688H271.604V350.344H268.291V352H261.666ZM283.042 352V350.344H281.386V348.688H279.729V327.156H284.698V345.375H286.354V347.031H291.323V345.375H292.979V343.719H294.636V327.156H299.604V352H294.636V348.688H292.979V350.344H291.323V352H283.042ZM307.627 352V332.125H304.314V327.156H307.627V320.531H312.596V327.156H319.221V332.125H312.596V352H307.627ZM355.451 332.125V330.469H357.107V325.5H355.451V323.844H343.857V332.125H355.451ZM338.889 352V318.875H357.107V320.531H358.764V322.188H360.42V323.844H362.076V332.125H360.42V333.781H358.764V335.438H357.107V337.094H352.139V338.75H353.795V340.406H355.451V342.062H357.107V343.719H358.764V345.375H360.42V347.031H362.076V348.688H363.732V350.344H365.389V352H358.764V350.344H357.107V348.688H355.451V347.031H353.795V345.375H352.139V343.719H350.482V342.062H348.826V340.406H347.17V338.75H345.514V337.094H343.857V352H338.889ZM379.053 347.031V345.375H380.709V343.719H382.365V335.438H380.709V333.781H379.053V332.125H372.428V333.781H370.771V345.375H372.428V347.031H379.053ZM372.428 352V350.344H369.115V348.688H367.459V345.375H365.803V333.781H367.459V330.469H369.115V328.812H372.428V327.156H379.053V328.812H380.709V330.469H382.365V327.156H387.334V352H382.365V348.688H380.709V350.344H379.053V352H372.428ZM398.772 352V350.344H395.46V348.688H393.804V345.375H392.147V333.781H393.804V330.469H395.46V328.812H398.772V327.156H405.397V328.812H408.71V330.469H410.366V335.438H407.054V333.781H405.397V332.125H398.772V333.781H397.116V345.375H398.772V347.031H405.397V345.375H407.054V343.719H410.366V348.688H408.71V350.344H405.397V352H398.772ZM429.879 337.094V333.781H428.223V332.125H421.598V333.781H419.941V337.094H429.879ZM421.598 352V350.344H418.285V348.688H416.629V345.375H414.973V333.781H416.629V330.469H418.285V328.812H421.598V327.156H428.223V328.812H431.535V330.469H433.191V333.781H434.848V340.406H419.941V345.375H421.598V347.031H428.223V345.375H429.879V343.719H434.848V347.031H433.191V348.688H431.535V350.344H428.223V352H421.598ZM438.419 352V347.031H443.388V352H438.419ZM447.27 352V347.031H452.238V352H447.27ZM456.12 352V347.031H461.089V352H456.12ZM464.971 352V347.031H469.939V352H464.971ZM473.821 352V347.031H478.79V352H473.821ZM482.672 352V347.031H487.641V352H482.672ZM491.522 352V347.031H496.491V352H491.522ZM500.373 352V347.031H505.342V352H500.373ZM509.224 352V347.031H514.192V352H509.224ZM518.074 352V347.031H523.043V352H518.074ZM526.925 352V347.031H531.894V352H526.925ZM535.775 352V347.031H540.744V352H535.775ZM545.816 352V347.031H547.473V345.375H549.129V343.719H550.785V342.062H552.441V340.406H554.098V338.75H555.754V337.094H557.41V335.438H559.066V333.781H560.723V332.125H562.379V325.5H560.723V323.844H554.098V325.5H552.441V327.156H550.785V330.469H545.816V327.156H547.473V323.844H549.129V322.188H550.785V320.531H552.441V318.875H562.379V320.531H564.035V322.188H565.691V323.844H567.348V333.781H565.691V335.438H564.035V337.094H562.379V338.75H560.723V340.406H559.066V342.062H557.41V343.719H555.754V345.375H554.098V347.031H569.004V352H545.816ZM578.01 352V327.156H573.041V323.844H574.697V322.188H576.354V320.531H578.01V318.875H582.979V352H578.01ZM595.918 352V348.688H594.262V343.719H592.605V337.094H590.949V330.469H589.293V325.5H587.637V318.875H592.605V325.5H594.262V332.125H595.918V337.094H597.574V343.719H599.23V337.094H600.887V332.125H602.543V325.5H604.199V318.875H609.168V325.5H610.824V332.125H612.48V337.094H614.137V343.719H615.793V337.094H617.449V332.125H619.105V325.5H620.762V318.875H625.73V325.5H624.074V330.469H622.418V337.094H620.762V343.719H619.105V348.688H617.449V352H612.48V348.688H610.824V343.719H609.168V337.094H607.512V330.469H605.855V337.094H604.199V343.719H602.543V348.688H600.887V352H595.918ZM630.182 352V347.031H635.15V352H630.182ZM644.312 352V345.375H645.968V342.062H647.624V337.094H649.28V333.781H650.937V330.469H652.593V327.156H654.249V325.5H655.905V323.844H637.687V318.875H662.53V323.844H660.874V327.156H659.218V328.812H657.562V332.125H655.905V335.438H654.249V338.75H652.593V342.062H650.937V347.031H649.28V352H644.312ZM681.732 338.75V327.156H680.076V328.812H678.42V330.469H676.764V332.125H675.107V333.781H673.451V335.438H671.795V338.75H681.732ZM681.732 352V343.719H666.826V333.781H668.482V332.125H670.139V330.469H671.795V328.812H673.451V327.156H675.107V325.5H676.764V323.844H678.42V322.188H680.076V320.531H681.732V318.875H686.701V338.75H691.67V343.719H686.701V352H681.732ZM695.759 352V347.031H697.415V345.375H699.071V343.719H700.728V342.062H702.384V340.406H704.04V338.75H705.696V337.094H707.353V335.438H709.009V333.781H710.665V332.125H712.321V325.5H710.665V323.844H704.04V325.5H702.384V327.156H700.728V330.469H695.759V327.156H697.415V323.844H699.071V322.188H700.728V320.531H702.384V318.875H712.321V320.531H713.978V322.188H715.634V323.844H717.29V333.781H715.634V335.438H713.978V337.094H712.321V338.75H710.665V340.406H709.009V342.062H707.353V343.719H705.696V345.375H704.04V347.031H718.946V352H695.759ZM42.3164 405V403.344H39.0039V401.688H37.3477V400.031H35.6914V396.719H40.6602V398.375H42.3164V400.031H50.5977V398.375H52.2539V393.406H50.5977V391.75H48.9414V390.094H43.9727V388.438H39.0039V386.781H37.3477V385.125H35.6914V376.844H37.3477V375.188H39.0039V373.531H40.6602V371.875H52.2539V373.531H53.9102V375.188H55.5664V378.5H50.5977V376.844H42.3164V378.5H40.6602V383.469H43.9727V385.125H48.9414V386.781H52.2539V388.438H55.5664V391.75H57.2227V400.031H55.5664V401.688H53.9102V403.344H50.5977V405H42.3164ZM62.502 405V385.125H59.1895V380.156H62.502V373.531H67.4707V380.156H74.0957V385.125H67.4707V405H62.502ZM89.1055 400.031V398.375H90.7617V396.719H92.418V388.438H90.7617V386.781H89.1055V385.125H82.4805V386.781H80.8242V398.375H82.4805V400.031H89.1055ZM82.4805 405V403.344H79.168V401.688H77.5117V398.375H75.8555V386.781H77.5117V383.469H79.168V381.812H82.4805V380.156H89.1055V381.812H90.7617V383.469H92.418V380.156H97.3867V405H92.418V401.688H90.7617V403.344H89.1055V405H82.4805ZM102.77 405V380.156H107.738V383.469H109.395V381.812H111.051V380.156H117.676V381.812H119.332V383.469H120.988V386.781H119.332V388.438H117.676V386.781H116.02V385.125H111.051V386.781H109.395V388.438H107.738V405H102.77ZM127.872 405V385.125H124.56V380.156H127.872V373.531H132.841V380.156H139.466V385.125H132.841V405H127.872ZM145.78 405V403.344H144.124V401.688H142.468V380.156H147.437V398.375H149.093V400.031H154.062V398.375H155.718V396.719H157.374V380.156H162.343V405H157.374V401.688H155.718V403.344H154.062V405H145.78ZM182.632 400.031V398.375H184.288V386.781H182.632V385.125H176.007V386.781H174.351V388.438H172.694V396.719H174.351V398.375H176.007V400.031H182.632ZM167.726 414.938V380.156H172.694V383.469H174.351V381.812H176.007V380.156H182.632V381.812H185.944V383.469H187.601V386.781H189.257V398.375H187.601V401.688H185.944V403.344H182.632V405H176.007V403.344H174.351V401.688H172.694V414.938H167.726ZM197.176 405V403.344H195.52V401.688H193.863V398.375H195.52V396.719H197.176V398.375H198.832V400.031H200.488V401.688H203.801V400.031H205.457V396.719H203.801V395.062H202.145V393.406H198.832V391.75H197.176V390.094H195.52V388.438H193.863V383.469H195.52V381.812H197.176V380.156H207.113V381.812H208.77V386.781H205.457V385.125H203.801V383.469H200.488V385.125H198.832V386.781H200.488V388.438H202.145V390.094H205.457V391.75H207.113V393.406H208.77V395.062H210.426V401.688H208.77V403.344H207.113V405H197.176ZM243.085 400.031V398.375H244.741V396.719H246.397V388.438H244.741V386.781H243.085V385.125H236.46V386.781H234.804V398.375H236.46V400.031H243.085ZM236.46 405V403.344H233.147V401.688H231.491V398.375H229.835V386.781H231.491V383.469H233.147V381.812H236.46V380.156H243.085V381.812H244.741V383.469H246.397V380.156H251.366V405H246.397V401.688H244.741V403.344H243.085V405H236.46ZM256.749 405V380.156H261.718V383.469H263.374V381.812H265.03V380.156H269.999V381.812H273.312V383.469H274.968V386.781H276.624V405H271.655V386.781H269.999V385.125H265.03V386.781H263.374V388.438H261.718V405H256.749ZM294.325 400.031V398.375H295.981V396.719H297.638V388.438H295.981V386.781H294.325V385.125H287.7V386.781H286.044V398.375H287.7V400.031H294.325ZM287.7 405V403.344H284.388V401.688H282.731V398.375H281.075V386.781H282.731V383.469H284.388V381.812H287.7V380.156H294.325V381.812H295.981V383.469H297.638V371.875H302.606V405H297.638V401.688H295.981V403.344H294.325V405H287.7ZM326.053 405V385.125H322.74V380.156H326.053V373.531H331.021V380.156H337.646V385.125H331.021V405H326.053ZM342.305 405V371.875H347.273V383.469H348.93V381.812H350.586V380.156H357.211V381.812H360.523V383.469H362.18V386.781H363.836V405H358.867V386.781H357.211V385.125H350.586V386.781H348.93V388.438H347.273V405H342.305ZM383.4 390.094V386.781H381.744V385.125H375.119V386.781H373.463V390.094H383.4ZM375.119 405V403.344H371.807V401.688H370.15V398.375H368.494V386.781H370.15V383.469H371.807V381.812H375.119V380.156H381.744V381.812H385.057V383.469H386.713V386.781H388.369V393.406H373.463V398.375H375.119V400.031H381.744V398.375H383.4V396.719H388.369V400.031H386.713V401.688H385.057V403.344H381.744V405H375.119ZM408.503 405V371.875H413.472V400.031H430.034V405H408.503ZM445.82 400.031V398.375H447.477V396.719H449.133V388.438H447.477V386.781H445.82V385.125H439.195V386.781H437.539V398.375H439.195V400.031H445.82ZM439.195 405V403.344H435.883V401.688H434.227V398.375H432.57V386.781H434.227V383.469H435.883V381.812H439.195V380.156H445.82V381.812H447.477V383.469H449.133V380.156H454.102V405H449.133V401.688H447.477V403.344H445.82V405H439.195ZM476.927 390.094V395.062H478.583V400.031H480.239V395.062H481.896V390.094H483.552V385.125H485.208V380.156H490.177V385.125H488.521V390.094H486.864V396.719H485.208V401.688H483.552V405H476.927V401.688H475.271V396.719H473.614V401.688H471.958V405H465.333V401.688H463.677V396.719H462.021V390.094H460.364V385.125H458.708V380.156H463.677V385.125H465.333V390.094H466.989V395.062H468.646V400.031H470.302V395.062H471.958V390.094H473.614V386.781H475.271V390.094H476.927ZM493.541 405V400.031H498.51V405H493.541ZM502.392 405V400.031H507.36V405H502.392ZM511.242 405V400.031H516.211V405H511.242ZM520.093 405V400.031H525.062V405H520.093ZM528.943 405V400.031H533.912V405H528.943ZM537.794 405V400.031H542.763V405H537.794ZM546.645 405V400.031H551.613V405H546.645ZM555.495 405V400.031H560.464V405H555.495ZM564.346 405V400.031H569.314V405H564.346ZM573.196 405V400.031H578.165V405H573.196ZM582.047 405V400.031H587.016V405H582.047ZM590.897 405V400.031H595.866V405H590.897ZM604.872 405V380.156H599.903V376.844H601.56V375.188H603.216V373.531H604.872V371.875H609.841V405H604.872ZM621.797 405V403.344H618.484V401.688H616.828V400.031H615.172V395.062H620.141V398.375H621.797V400.031H628.422V398.375H631.734V395.062H633.391V391.75H631.734V390.094H630.078V388.438H628.422V386.781H616.828V380.156H618.484V375.188H620.141V371.875H635.047V376.844H623.453V380.156H621.797V381.812H630.078V383.469H633.391V385.125H635.047V386.781H636.703V390.094H638.359V396.719H636.703V400.031H635.047V401.688H633.391V403.344H630.078V405H621.797ZM641.775 405V400.031H646.744V405H641.775ZM668.224 400.031V398.375H669.88V391.75H668.224V390.094H659.942V391.75H658.286V398.375H659.942V400.031H668.224ZM658.286 405V403.344H654.974V400.031H653.317V395.062H651.661V381.812H653.317V376.844H654.974V373.531H658.286V371.875H669.88V373.531H673.192V376.844H674.849V380.156H669.88V378.5H668.224V376.844H659.942V378.5H658.286V383.469H656.63V388.438H658.286V386.781H659.942V385.125H671.536V386.781H673.192V388.438H674.849V400.031H673.192V403.344H669.88V405H658.286ZM684.424 405V380.156H679.455V376.844H681.111V375.188H682.768V373.531H684.424V371.875H689.393V405H684.424ZM711.338 400.031V398.375H712.994V391.75H711.338V390.094H709.682V388.438H703.057V390.094H701.4V391.75H699.744V398.375H701.4V400.031H711.338ZM709.682 385.125V383.469H711.338V378.5H709.682V376.844H703.057V378.5H701.4V383.469H703.057V385.125H709.682ZM701.4 405V403.344H698.088V401.688H696.432V398.375H694.775V391.75H696.432V388.438H698.088V386.781H699.744V385.125H698.088V383.469H696.432V378.5H698.088V375.188H699.744V373.531H703.057V371.875H709.682V373.531H712.994V375.188H714.65V378.5H716.307V383.469H714.65V385.125H712.994V386.781H714.65V388.438H716.307V391.75H717.963V398.375H716.307V401.688H714.65V403.344H711.338V405H701.4Z" fill="black"/>
<path d="M799.701 41H750V142H799.701C814.26 142 815.264 41 799.701 41Z" fill="#FFB340" stroke="black"/>
<path d="M770 66.4814H791.25V79.2314H788.062V69.6689H782.75V79.2314H779.562V69.6689H770V66.4814ZM770 82.8506H773.188V83.9131H774.25V84.9756H775.312V86.0381H776.375V87.1006H777.438V88.1631H778.5V89.2256H779.562V90.2881H780.625V91.3506H781.688V92.4131H782.75V93.4756H787V92.4131H788.062V88.1631H787V87.1006H785.938V86.0381H783.812V82.8506H785.938V83.9131H788.062V84.9756H789.125V86.0381H790.188V87.1006H791.25V93.4756H790.188V94.5381H789.125V95.6006H788.062V96.6631H781.688V95.6006H780.625V94.5381H779.562V93.4756H778.5V92.4131H777.438V91.3506H776.375V90.2881H775.312V89.2256H774.25V88.1631H773.188V97.7256H770V82.8506ZM773.188 111.505H774.25V112.567H777.438V113.63H783.812V112.567H787V111.505H788.062V106.192H787V105.13H783.812V104.067H777.438V105.13H774.25V106.192H773.188V111.505ZM770 105.13H771.062V103.005H773.188V101.942H776.375V100.88H784.875V101.942H788.062V103.005H790.188V105.13H791.25V112.567H790.188V114.692H788.062V115.755H784.875V116.817H776.375V115.755H773.188V114.692H771.062V112.567H770V105.13Z" fill="black"/>
<path d="M770 180.316H771.062V178.191H772.125V177.129H773.188V176.066H775.312V179.254H774.25V180.316H773.188V185.629H774.25V186.691H777.438V185.629H778.5V184.566H779.562V181.379H780.625V178.191H781.688V177.129H782.75V176.066H788.062V177.129H789.125V178.191H790.188V179.254H791.25V186.691H790.188V187.754H789.125V188.816H787V185.629H788.062V180.316H787V179.254H783.812V181.379H782.75V184.566H781.688V186.691H780.625V188.816H778.5V189.879H773.188V188.816H772.125V187.754H771.062V185.629H770V180.316ZM770 193.1H773.188V194.162H774.25V195.225H775.312V196.287H776.375V197.35H777.438V198.412H778.5V199.475H779.562V200.537H780.625V201.6H781.688V202.662H782.75V203.725H787V202.662H788.062V198.412H787V197.35H785.938V196.287H783.812V193.1H785.938V194.162H788.062V195.225H789.125V196.287H790.188V197.35H791.25V203.725H790.188V204.787H789.125V205.85H788.062V206.912H781.688V205.85H780.625V204.787H779.562V203.725H778.5V202.662H777.438V201.6H776.375V200.537H775.312V199.475H774.25V198.412H773.188V207.975H770V193.1ZM773.188 221.754H774.25V222.816H777.438V223.879H783.812V222.816H787V221.754H788.062V216.441H787V215.379H783.812V214.316H777.438V215.379H774.25V216.441H773.188V221.754ZM770 215.379H771.062V213.254H773.188V212.191H776.375V211.129H784.875V212.191H788.062V213.254H790.188V215.379H791.25V222.816H790.188V224.941H788.062V226.004H784.875V227.066H776.375V226.004H773.188V224.941H771.062V222.816H770V215.379Z" fill="black"/>
<path d="M799.701 151H750V252H799.701C814.26 252 815.264 151 799.701 151Z" stroke="black"/>
<path d="M770 291.312H791.25V304.062H788.062V294.5H782.75V304.062H779.562V294.5H770V291.312ZM770 310.205H785.938V307.018H788.062V308.08H789.125V309.143H790.188V310.205H791.25V313.393H770V310.205ZM781.688 326.674H782.75V327.736H787V326.674H788.062V321.361H787V320.299H782.75V321.361H781.688V326.674ZM770 320.299H771.062V318.174H773.188V317.111H775.312V320.299H774.25V321.361H773.188V326.674H774.25V327.736H777.438V328.799H780.625V327.736H779.562V326.674H778.5V319.236H779.562V318.174H781.688V317.111H787V318.174H790.188V320.299H791.25V327.736H790.188V329.861H788.062V330.924H784.875V331.986H776.375V330.924H773.188V329.861H771.062V327.736H770V320.299Z" fill="black"/>
<path d="M799.701 261H750V362H799.701C814.26 362 815.264 261 799.701 261Z" stroke="black"/>
</svg>
