<svg width="812" height="475" viewBox="0 0 812 475" fill="none" xmlns="http://www.w3.org/2000/svg">
<rect x="0.5" y="0.5" width="749" height="474" rx="33.5" fill="#FFB340" stroke="black"/>
<path d="M55.496 85V82.632H57.864V80.264H60.232V70.792H57.864V68.424H55.496V66.056H53.128V63.688H48.392V61.32H46.024V58.952H43.656V56.584H46.024V54.216H50.76V56.584H53.128V58.952H57.864V51.848H55.496V49.48H41.288V51.848H38.92V54.216H36.552V61.32H38.92V63.688H41.288V66.056H43.656V68.424H48.392V70.792H50.76V73.16H53.128V77.896H50.76V80.264H46.024V77.896H43.656V75.528H41.288V73.16H38.92V75.528H36.552V80.264H38.92V82.632H41.288V85H55.496ZM55.496 77.896V73.16H57.864V77.896H55.496ZM41.288 56.584V58.952H38.92V56.584H41.288ZM79.1858 77.896V75.528H76.8178V73.16H74.4498V61.32H76.8178V58.952H79.1858V56.584H88.6578V58.952H91.0258V75.528H88.6578V77.896H79.1858ZM74.4498 99.208V80.264H76.8178V82.632H79.1858V85H88.6578V82.632H93.3938V80.264H95.7618V75.528H98.1298V58.952H95.7618V54.216H93.3938V51.848H88.6578V49.48H79.1858V51.848H76.8178V54.216H74.4498V49.48H67.3458V99.208H74.4498ZM69.7138 96.84V51.848H72.0818V56.584H74.4498V58.952H72.0818V75.528H74.4498V77.896H72.0818V96.84H69.7138ZM93.3938 73.16V61.32H95.7618V73.16H93.3938ZM81.5538 54.216V51.848H86.2898V54.216H81.5538ZM81.5538 80.264H86.2898V82.632H81.5538V80.264ZM112.172 85V61.32H114.54V58.952H116.908V56.584H124.012V58.952H126.38V61.32H128.748V58.952H131.116V54.216H128.748V51.848H126.38V49.48H116.908V51.848H114.54V54.216H112.172V49.48H105.068V85H112.172ZM107.436 82.632V51.848H109.804V56.584H112.172V58.952H109.804V82.632H107.436ZM124.012 54.216H119.276V51.848H124.012V54.216ZM141.519 44.744V37.64H134.415V44.744H141.519ZM141.519 85V49.48H134.415V85H141.519ZM136.783 82.632V51.848H139.151V82.632H136.783ZM136.783 42.376V40.008H139.151V42.376H136.783ZM156.905 85V61.32H159.273V58.952H161.641V56.584H168.745V58.952H171.113V85H178.217V58.952H175.849V54.216H173.481V51.848H168.745V49.48H161.641V51.848H159.273V54.216H156.905V49.48H149.801V85H156.905ZM152.169 82.632V51.848H154.537V56.584H156.905V58.952H154.537V82.632H152.169ZM173.481 82.632V61.32H175.849V82.632H173.481ZM166.377 54.216H164.009V51.848H166.377V54.216ZM194.597 77.896V75.528H192.229V58.952H194.597V56.584H204.069V58.952H206.437V61.32H208.805V73.16H206.437V75.528H204.069V77.896H194.597ZM206.437 99.208V96.84H211.173V94.472H213.541V92.104H215.909V49.48H208.805V54.216H206.437V51.848H204.069V49.48H194.597V51.848H189.861V54.216H187.493V58.952H185.125V75.528H187.493V80.264H189.861V82.632H194.597V85H204.069V82.632H206.437V80.264H208.805V89.736H206.437V92.104H194.597V89.736H192.229V87.368H187.493V89.736H185.125V92.104H187.493V94.472H189.861V96.84H194.597V99.208H206.437ZM211.173 89.736V77.896H208.805V75.528H211.173V58.952H208.805V56.584H211.173V51.848H213.541V89.736H211.173ZM189.861 61.32V73.16H187.493V61.32H189.861ZM196.965 96.84V94.472H204.069V96.84H196.965ZM201.701 54.216H196.965V51.848H201.701V54.216ZM196.965 80.264H201.701V82.632H196.965V80.264ZM204.069 80.264V77.896H206.437V80.264H204.069ZM278.411 85V77.896H257.099V75.528H259.467V73.16H261.835V70.792H264.203V68.424H266.571V66.056H268.939V63.688H271.307V61.32H273.675V58.952H276.043V44.744H273.675V42.376H271.307V40.008H268.939V37.64H254.731V40.008H252.363V42.376H249.995V44.744H247.627V49.48H245.259V54.216H252.363V49.48H254.731V47.112H257.099V44.744H266.571V47.112H268.939V56.584H266.571V58.952H264.203V61.32H261.835V63.688H259.467V66.056H257.099V68.424H254.731V70.792H252.363V73.16H249.995V75.528H247.627V77.896H245.259V85H278.411ZM247.627 82.632V80.264H249.995V77.896H252.363V75.528H254.731V80.264H276.043V82.632H247.627ZM266.571 42.376H257.099V40.008H266.571V42.376ZM271.307 56.584V47.112H273.675V56.584H271.307ZM297.273 77.896V75.528H294.905V68.424H292.537V54.216H294.905V47.112H297.273V44.744H309.113V47.112H311.481V54.216H313.849V68.424H311.481V75.528H309.113V77.896H297.273ZM311.481 85V82.632H316.217V77.896H318.585V70.792H320.953V51.848H318.585V44.744H316.217V40.008H311.481V37.64H294.905V40.008H290.169V44.744H287.801V51.848H285.433V70.792H287.801V77.896H290.169V82.632H294.905V85H311.481ZM316.217 68.424V54.216H318.585V68.424H316.217ZM290.169 54.216V68.424H287.801V54.216H290.169ZM297.273 82.632V80.264H309.113V82.632H297.273ZM309.113 42.376H297.273V40.008H309.113V42.376ZM290.169 75.528V70.792H292.537V75.528H290.169ZM292.537 47.112V51.848H290.169V47.112H292.537ZM316.217 51.848H313.849V47.112H316.217V51.848ZM313.849 75.528V70.792H316.217V75.528H313.849ZM292.537 42.376H294.905V44.744H292.537V42.376ZM311.481 80.264V77.896H313.849V80.264H311.481ZM313.849 44.744H311.481V42.376H313.849V44.744ZM292.537 80.264V77.896H294.905V80.264H292.537ZM361.372 85V77.896H340.06V75.528H342.428V73.16H344.796V70.792H347.164V68.424H349.532V66.056H351.9V63.688H354.268V61.32H356.636V58.952H359.004V44.744H356.636V42.376H354.268V40.008H351.9V37.64H337.692V40.008H335.324V42.376H332.956V44.744H330.588V49.48H328.22V54.216H335.324V49.48H337.692V47.112H340.06V44.744H349.532V47.112H351.9V56.584H349.532V58.952H347.164V61.32H344.796V63.688H342.428V66.056H340.06V68.424H337.692V70.792H335.324V73.16H332.956V75.528H330.588V77.896H328.22V85H361.372ZM330.588 82.632V80.264H332.956V77.896H335.324V75.528H337.692V80.264H359.004V82.632H330.588ZM349.532 42.376H340.06V40.008H349.532V42.376ZM354.268 56.584V47.112H356.636V56.584H354.268ZM380.234 77.896V75.528H377.866V68.424H375.498V54.216H377.866V47.112H380.234V44.744H392.074V47.112H394.442V54.216H396.81V68.424H394.442V75.528H392.074V77.896H380.234ZM394.442 85V82.632H399.178V77.896H401.546V70.792H403.914V51.848H401.546V44.744H399.178V40.008H394.442V37.64H377.866V40.008H373.13V44.744H370.762V51.848H368.394V70.792H370.762V77.896H373.13V82.632H377.866V85H394.442ZM399.178 68.424V54.216H401.546V68.424H399.178ZM373.13 54.216V68.424H370.762V54.216H373.13ZM380.234 82.632V80.264H392.074V82.632H380.234ZM392.074 42.376H380.234V40.008H392.074V42.376ZM373.13 75.528V70.792H375.498V75.528H373.13ZM375.498 47.112V51.848H373.13V47.112H375.498ZM399.178 51.848H396.81V47.112H399.178V51.848ZM396.81 75.528V70.792H399.178V75.528H396.81ZM375.498 42.376H377.866V44.744H375.498V42.376ZM394.442 80.264V77.896H396.81V80.264H394.442ZM396.81 44.744H394.442V42.376H396.81V44.744ZM375.498 80.264V77.896H377.866V80.264H375.498Z" fill="black"/>
<path d="M35.9502 219V185.875H40.9189V219H35.9502ZM46.7158 219V194.156H51.6846V197.469H53.3408V195.812H54.9971V194.156H59.9658V195.812H63.2783V197.469H64.9346V200.781H66.5908V219H61.6221V200.781H59.9658V199.125H54.9971V200.781H53.3408V202.438H51.6846V219H46.7158ZM74.458 219V199.125H71.1455V194.156H74.458V187.531H79.4268V194.156H86.0518V199.125H79.4268V219H74.458ZM89.1055 219V194.156H94.0742V197.469H95.7305V195.812H97.3867V194.156H104.012V195.812H105.668V197.469H107.324V200.781H105.668V202.438H104.012V200.781H102.355V199.125H97.3867V200.781H95.7305V202.438H94.0742V219H89.1055ZM122.852 214.031V212.375H124.508V200.781H122.852V199.125H116.227V200.781H114.57V212.375H116.227V214.031H122.852ZM116.227 219V217.344H112.914V215.688H111.258V212.375H109.602V200.781H111.258V197.469H112.914V195.812H116.227V194.156H122.852V195.812H126.164V197.469H127.82V200.781H129.477V212.375H127.82V215.688H126.164V217.344H122.852V219H116.227ZM151.991 219V199.125H148.679V194.156H151.991V187.531H156.96V194.156H163.585V199.125H156.96V219H151.991ZM178.595 214.031V212.375H180.251V200.781H178.595V199.125H171.97V200.781H170.313V212.375H171.97V214.031H178.595ZM171.97 219V217.344H168.657V215.688H167.001V212.375H165.345V200.781H167.001V197.469H168.657V195.812H171.97V194.156H178.595V195.812H181.907V197.469H183.563V200.781H185.22V212.375H183.563V215.688H181.907V217.344H178.595V219H171.97ZM205.302 219V185.875H213.583V190.844H215.239V194.156H216.896V199.125H218.552V204.094H220.208V210.719H221.864V204.094H223.521V199.125H225.177V194.156H226.833V190.844H228.489V185.875H236.771V219H231.802V194.156H230.146V197.469H228.489V204.094H226.833V210.719H225.177V215.688H223.521V219H218.552V215.688H216.896V210.719H215.239V204.094H213.583V197.469H211.927V194.156H210.271V219H205.302ZM242.774 219V185.875H247.743V214.031H264.306V219H242.774ZM268.188 219V214.031H273.156V219H268.188ZM277.038 219V214.031H282.007V219H277.038ZM285.889 219V214.031H290.857V219H285.889ZM294.739 219V214.031H299.708V219H294.739ZM303.59 219V214.031H308.559V219H303.59ZM312.44 219V214.031H317.409V219H312.44ZM321.291 219V214.031H326.26V219H321.291ZM330.142 219V214.031H335.11V219H330.142ZM338.992 219V214.031H343.961V219H338.992ZM347.843 219V214.031H352.812V219H347.843ZM356.693 219V214.031H361.662V219H356.693ZM365.544 219V214.031H370.513V219H365.544ZM374.395 219V214.031H379.363V219H374.395ZM383.245 219V214.031H388.214V219H383.245ZM392.096 219V214.031H397.064V219H392.096ZM400.946 219V214.031H405.915V219H400.946ZM409.797 219V214.031H414.766V219H409.797ZM418.647 219V214.031H423.616V219H418.647ZM427.498 219V214.031H432.467V219H427.498ZM436.349 219V214.031H441.317V219H436.349ZM445.199 219V214.031H450.168V219H445.199ZM454.05 219V214.031H459.019V219H454.05ZM462.9 219V214.031H467.869V219H462.9ZM471.751 219V214.031H476.72V219H471.751ZM480.602 219V214.031H485.57V219H480.602ZM489.452 219V214.031H494.421V219H489.452ZM498.303 219V214.031H503.271V219H498.303ZM507.153 219V214.031H512.122V219H507.153ZM516.004 219V214.031H520.973V219H516.004ZM524.854 219V214.031H529.823V219H524.854ZM533.705 219V214.031H538.674V219H533.705ZM542.556 219V214.031H547.524V219H542.556ZM551.406 219V214.031H556.375V219H551.406ZM560.257 219V214.031H565.226V219H560.257ZM569.107 219V214.031H574.076V219H569.107ZM577.958 219V214.031H582.927V219H577.958ZM586.809 219V214.031H591.777V219H586.809ZM613.257 214.031V212.375H614.913V205.75H613.257V204.094H604.976V205.75H603.319V212.375H604.976V214.031H613.257ZM603.319 219V217.344H600.007V214.031H598.351V209.062H596.694V195.812H598.351V190.844H600.007V187.531H603.319V185.875H614.913V187.531H618.226V190.844H619.882V194.156H614.913V192.5H613.257V190.844H604.976V192.5H603.319V197.469H601.663V202.438H603.319V200.781H604.976V199.125H616.569V200.781H618.226V202.438H619.882V214.031H618.226V217.344H614.913V219H603.319ZM624.333 219V214.031H629.302V219H624.333ZM650.781 214.031V212.375H652.438V207.406H654.094V197.469H652.438V192.5H650.781V190.844H642.5V192.5H640.844V197.469H639.188V207.406H640.844V212.375H642.5V214.031H650.781ZM640.844 219V217.344H637.531V214.031H635.875V209.062H634.219V195.812H635.875V190.844H637.531V187.531H640.844V185.875H652.438V187.531H655.75V190.844H657.406V195.812H659.062V209.062H657.406V214.031H655.75V217.344H652.438V219H640.844ZM669 219V217.344H667.344V215.688H665.688V214.031H664.031V210.719H669V212.375H670.656V214.031H678.938V212.375H680.594V205.75H678.938V204.094H672.312V199.125H678.938V197.469H680.594V192.5H678.938V190.844H670.656V192.5H669V194.156H664.031V190.844H665.688V189.188H667.344V187.531H669V185.875H678.938V187.531H682.25V189.188H683.906V190.844H685.562V199.125H683.906V200.781H682.25V202.438H683.906V204.094H685.562V214.031H683.906V215.688H682.25V217.344H678.938V219H669ZM707.611 214.031V212.375H709.268V205.75H707.611V204.094H699.33V205.75H697.674V212.375H699.33V214.031H707.611ZM697.674 219V217.344H694.361V214.031H692.705V209.062H691.049V195.812H692.705V190.844H694.361V187.531H697.674V185.875H709.268V187.531H712.58V190.844H714.236V194.156H709.268V192.5H707.611V190.844H699.33V192.5H697.674V197.469H696.018V202.438H697.674V200.781H699.33V199.125H710.924V200.781H712.58V202.438H714.236V214.031H712.58V217.344H709.268V219H697.674ZM35.9502 272V238.875H40.9189V272H35.9502ZM46.7158 272V247.156H51.6846V250.469H53.3408V248.812H54.9971V247.156H59.9658V248.812H63.2783V250.469H64.9346V253.781H66.5908V272H61.6221V253.781H59.9658V252.125H54.9971V253.781H53.3408V255.438H51.6846V272H46.7158ZM74.458 272V252.125H71.1455V247.156H74.458V240.531H79.4268V247.156H86.0518V252.125H79.4268V272H74.458ZM89.1055 272V247.156H94.0742V250.469H95.7305V248.812H97.3867V247.156H104.012V248.812H105.668V250.469H107.324V253.781H105.668V255.438H104.012V253.781H102.355V252.125H97.3867V253.781H95.7305V255.438H94.0742V272H89.1055ZM122.852 267.031V265.375H124.508V253.781H122.852V252.125H116.227V253.781H114.57V265.375H116.227V267.031H122.852ZM116.227 272V270.344H112.914V268.688H111.258V265.375H109.602V253.781H111.258V250.469H112.914V248.812H116.227V247.156H122.852V248.812H126.164V250.469H127.82V253.781H129.477V265.375H127.82V268.688H126.164V270.344H122.852V272H116.227ZM151.991 272V252.125H148.679V247.156H151.991V240.531H156.96V247.156H163.585V252.125H156.96V272H151.991ZM178.595 267.031V265.375H180.251V253.781H178.595V252.125H171.97V253.781H170.313V265.375H171.97V267.031H178.595ZM171.97 272V270.344H168.657V268.688H167.001V265.375H165.345V253.781H167.001V250.469H168.657V248.812H171.97V247.156H178.595V248.812H181.907V250.469H183.563V253.781H185.22V265.375H183.563V268.688H181.907V270.344H178.595V272H171.97ZM224.814 257.094V255.438H223.158V252.125H221.502V248.812H219.846V245.5H218.189V248.812H216.533V252.125H214.877V255.438H213.221V257.094H224.814ZM203.283 272V267.031H204.939V263.719H206.596V258.75H208.252V255.438H209.908V252.125H211.564V248.812H213.221V245.5H214.877V242.188H216.533V238.875H221.502V242.188H223.158V245.5H224.814V248.812H226.471V252.125H228.127V255.438H229.783V258.75H231.439V263.719H233.096V267.031H234.752V272H229.783V268.688H228.127V265.375H226.471V262.062H211.564V265.375H209.908V268.688H208.252V272H203.283ZM238.064 272V238.875H243.033V272H238.064ZM261.666 267.031V265.375H263.322V263.719H264.979V255.438H263.322V253.781H261.666V252.125H255.041V253.781H253.385V265.375H255.041V267.031H261.666ZM255.041 281.938V280.281H251.729V278.625H250.072V276.969H248.416V275.312H250.072V273.656H253.385V275.312H255.041V276.969H263.322V275.312H264.979V268.688H263.322V270.344H261.666V272H255.041V270.344H251.729V268.688H250.072V265.375H248.416V253.781H250.072V250.469H251.729V248.812H255.041V247.156H261.666V248.812H263.322V250.469H264.979V247.156H269.947V276.969H268.291V278.625H266.635V280.281H263.322V281.938H255.041ZM288.321 267.031V265.375H289.978V253.781H288.321V252.125H281.696V253.781H280.04V265.375H281.696V267.031H288.321ZM281.696 272V270.344H278.384V268.688H276.728V265.375H275.071V253.781H276.728V250.469H278.384V248.812H281.696V247.156H288.321V248.812H291.634V250.469H293.29V253.781H294.946V265.375H293.29V268.688H291.634V270.344H288.321V272H281.696ZM299.812 272V247.156H304.78V250.469H306.437V248.812H308.093V247.156H314.718V248.812H316.374V250.469H318.03V253.781H316.374V255.438H314.718V253.781H313.062V252.125H308.093V253.781H306.437V255.438H304.78V272H299.812ZM320.359 272V247.156H325.328V272H320.359ZM320.359 243.844V238.875H325.328V243.844H320.359ZM333.765 272V252.125H330.452V247.156H333.765V240.531H338.733V247.156H345.358V252.125H338.733V272H333.765ZM350.017 272V238.875H354.985V250.469H356.642V248.812H358.298V247.156H364.923V248.812H368.235V250.469H369.892V253.781H371.548V272H366.579V253.781H364.923V252.125H358.298V253.781H356.642V255.438H354.985V272H350.017ZM376.775 272V247.156H381.744V250.469H383.4V248.812H385.057V247.156H390.025V248.812H391.682V250.469H394.994V248.812H396.65V247.156H403.275V248.812H404.932V250.469H406.588V253.781H408.244V272H403.275V253.781H401.619V252.125H396.65V253.781H394.994V272H390.025V253.781H388.369V252.125H385.057V253.781H383.4V255.438H381.744V272H376.775ZM416.525 272V270.344H414.869V268.688H413.213V265.375H414.869V263.719H416.525V265.375H418.182V267.031H419.838V268.688H423.15V267.031H424.807V263.719H423.15V262.062H421.494V260.406H418.182V258.75H416.525V257.094H414.869V255.438H413.213V250.469H414.869V248.812H416.525V247.156H426.463V248.812H428.119V253.781H424.807V252.125H423.15V250.469H419.838V252.125H418.182V253.781H419.838V255.438H421.494V257.094H424.807V258.75H426.463V260.406H428.119V262.062H429.775V268.688H428.119V270.344H426.463V272H416.525ZM433.398 272V267.031H438.367V272H433.398ZM442.249 272V267.031H447.218V272H442.249ZM451.1 272V267.031H456.068V272H451.1ZM459.95 272V267.031H464.919V272H459.95ZM468.801 272V267.031H473.77V272H468.801ZM477.651 272V267.031H482.62V272H477.651ZM486.502 272V267.031H491.471V272H486.502ZM495.353 272V267.031H500.321V272H495.353ZM504.203 272V267.031H509.172V272H504.203ZM513.054 272V267.031H518.022V272H513.054ZM521.904 272V267.031H526.873V272H521.904ZM530.755 272V267.031H535.724V272H530.755ZM539.605 272V267.031H544.574V272H539.605ZM548.456 272V267.031H553.425V272H548.456ZM557.307 272V267.031H562.275V272H557.307ZM566.157 272V267.031H571.126V272H566.157ZM575.008 272V267.031H579.977V272H575.008ZM583.858 272V267.031H588.827V272H583.858ZM610.307 267.031V265.375H611.963V258.75H610.307V257.094H602.025V258.75H600.369V265.375H602.025V267.031H610.307ZM600.369 272V270.344H597.057V267.031H595.4V262.062H593.744V248.812H595.4V243.844H597.057V240.531H600.369V238.875H611.963V240.531H615.275V243.844H616.932V247.156H611.963V245.5H610.307V243.844H602.025V245.5H600.369V250.469H598.713V255.438H600.369V253.781H602.025V252.125H613.619V253.781H615.275V255.438H616.932V267.031H615.275V270.344H611.963V272H600.369ZM621.383 272V267.031H626.352V272H621.383ZM647.831 267.031V265.375H649.487V260.406H651.144V250.469H649.487V245.5H647.831V243.844H639.55V245.5H637.894V250.469H636.237V260.406H637.894V265.375H639.55V267.031H647.831ZM637.894 272V270.344H634.581V267.031H632.925V262.062H631.269V248.812H632.925V243.844H634.581V240.531H637.894V238.875H649.487V240.531H652.8V243.844H654.456V248.812H656.112V262.062H654.456V267.031H652.8V270.344H649.487V272H637.894ZM677.592 267.031V265.375H679.248V260.406H680.904V250.469H679.248V245.5H677.592V243.844H669.311V245.5H667.654V250.469H665.998V260.406H667.654V265.375H669.311V267.031H677.592ZM667.654 272V270.344H664.342V267.031H662.686V262.062H661.029V248.812H662.686V243.844H664.342V240.531H667.654V238.875H679.248V240.531H682.561V243.844H684.217V248.812H685.873V262.062H684.217V267.031H682.561V270.344H679.248V272H667.654ZM707.353 267.031V265.375H709.009V258.75H707.353V257.094H699.071V258.75H697.415V265.375H699.071V267.031H707.353ZM697.415 272V270.344H694.103V267.031H692.446V262.062H690.79V248.812H692.446V243.844H694.103V240.531H697.415V238.875H709.009V240.531H712.321V243.844H713.978V247.156H709.009V245.5H707.353V243.844H699.071V245.5H697.415V250.469H695.759V255.438H697.415V253.781H699.071V252.125H710.665V253.781H712.321V255.438H713.978V267.031H712.321V270.344H709.009V272H697.415ZM52.5127 305.125V303.469H54.1689V298.5H52.5127V296.844H40.9189V305.125H52.5127ZM35.9502 325V291.875H54.1689V293.531H55.8252V295.188H57.4814V296.844H59.1377V305.125H57.4814V306.781H55.8252V308.438H54.1689V310.094H49.2002V311.75H50.8564V313.406H52.5127V315.062H54.1689V316.719H55.8252V318.375H57.4814V320.031H59.1377V321.688H60.7939V323.344H62.4502V325H55.8252V323.344H54.1689V321.688H52.5127V320.031H50.8564V318.375H49.2002V316.719H47.5439V315.062H45.8877V313.406H44.2314V311.75H42.5752V310.094H40.9189V325H35.9502ZM77.7705 310.094V306.781H76.1143V305.125H69.4893V306.781H67.833V310.094H77.7705ZM69.4893 325V323.344H66.1768V321.688H64.5205V318.375H62.8643V306.781H64.5205V303.469H66.1768V301.812H69.4893V300.156H76.1143V301.812H79.4268V303.469H81.083V306.781H82.7393V313.406H67.833V318.375H69.4893V320.031H76.1143V318.375H77.7705V316.719H82.7393V320.031H81.083V321.688H79.4268V323.344H76.1143V325H69.4893ZM100.337 320.031V318.375H101.993V316.719H103.649V308.438H101.993V306.781H100.337V305.125H93.7119V306.781H92.0557V318.375H93.7119V320.031H100.337ZM93.7119 325V323.344H90.3994V321.688H88.7432V318.375H87.0869V306.781H88.7432V303.469H90.3994V301.812H93.7119V300.156H100.337V301.812H101.993V303.469H103.649V300.156H108.618V325H103.649V321.688H101.993V323.344H100.337V325H93.7119ZM114.208 325V291.875H119.177V325H114.208ZM159.703 310.094V308.438H158.047V305.125H156.391V301.812H154.734V298.5H153.078V301.812H151.422V305.125H149.766V308.438H148.109V310.094H159.703ZM138.172 325V320.031H139.828V316.719H141.484V311.75H143.141V308.438H144.797V305.125H146.453V301.812H148.109V298.5H149.766V295.188H151.422V291.875H156.391V295.188H158.047V298.5H159.703V301.812H161.359V305.125H163.016V308.438H164.672V311.75H166.328V316.719H167.984V320.031H169.641V325H164.672V321.688H163.016V318.375H161.359V315.062H146.453V318.375H144.797V321.688H143.141V325H138.172ZM172.746 325V300.156H177.715V303.469H179.371V301.812H181.027V300.156H185.996V301.812H189.309V303.469H190.965V306.781H192.621V325H187.652V306.781H185.996V305.125H181.027V306.781H179.371V308.438H177.715V325H172.746ZM210.529 320.031V318.375H212.186V316.719H213.842V308.438H212.186V306.781H210.529V305.125H203.904V306.781H202.248V318.375H203.904V320.031H210.529ZM203.904 325V323.344H200.592V321.688H198.936V318.375H197.279V306.781H198.936V303.469H200.592V301.812H203.904V300.156H210.529V301.812H212.186V303.469H213.842V300.156H218.811V325H213.842V321.688H212.186V323.344H210.529V325H203.904ZM224.4 325V291.875H229.369V325H224.4ZM239.358 334.938V329.969H241.015V325H242.671V321.688H241.015V318.375H239.358V315.062H237.702V310.094H236.046V305.125H234.39V300.156H239.358V305.125H241.015V310.094H242.671V315.062H244.327V316.719H245.983V310.094H247.64V305.125H249.296V300.156H254.265V305.125H252.608V310.094H250.952V315.062H249.296V320.031H247.64V325H245.983V329.969H244.327V334.938H239.358ZM262.028 325V323.344H260.372V321.688H258.716V318.375H260.372V316.719H262.028V318.375H263.685V320.031H265.341V321.688H268.653V320.031H270.31V316.719H268.653V315.062H266.997V313.406H263.685V311.75H262.028V310.094H260.372V308.438H258.716V303.469H260.372V301.812H262.028V300.156H271.966V301.812H273.622V306.781H270.31V305.125H268.653V303.469H265.341V305.125H263.685V306.781H265.341V308.438H266.997V310.094H270.31V311.75H271.966V313.406H273.622V315.062H275.278V321.688H273.622V323.344H271.966V325H262.028ZM280.454 325V300.156H285.423V325H280.454ZM280.454 296.844V291.875H285.423V296.844H280.454ZM294.273 325V323.344H292.617V321.688H290.961V318.375H292.617V316.719H294.273V318.375H295.93V320.031H297.586V321.688H300.898V320.031H302.555V316.719H300.898V315.062H299.242V313.406H295.93V311.75H294.273V310.094H292.617V308.438H290.961V303.469H292.617V301.812H294.273V300.156H304.211V301.812H305.867V306.781H302.555V305.125H300.898V303.469H297.586V305.125H295.93V306.781H297.586V308.438H299.242V310.094H302.555V311.75H304.211V313.406H305.867V315.062H307.523V321.688H305.867V323.344H304.211V325H294.273ZM311.146 325V320.031H316.115V325H311.146ZM319.997 325V320.031H324.966V325H319.997ZM328.848 325V320.031H333.816V325H328.848ZM337.698 325V320.031H342.667V325H337.698ZM346.549 325V320.031H351.518V325H346.549ZM355.399 325V320.031H360.368V325H355.399ZM364.25 325V320.031H369.219V325H364.25ZM373.101 325V320.031H378.069V325H373.101ZM381.951 325V320.031H386.92V325H381.951ZM390.802 325V320.031H395.771V325H390.802ZM399.652 325V320.031H404.621V325H399.652ZM408.503 325V320.031H413.472V325H408.503ZM417.354 325V320.031H422.322V325H417.354ZM426.204 325V320.031H431.173V325H426.204ZM435.055 325V320.031H440.023V325H435.055ZM443.905 325V320.031H448.874V325H443.905ZM452.756 325V320.031H457.725V325H452.756ZM461.606 325V320.031H466.575V325H461.606ZM470.457 325V320.031H475.426V325H470.457ZM479.308 325V320.031H484.276V325H479.308ZM488.158 325V320.031H493.127V325H488.158ZM497.009 325V320.031H501.978V325H497.009ZM505.859 325V320.031H510.828V325H505.859ZM514.71 325V320.031H519.679V325H514.71ZM523.561 325V320.031H528.529V325H523.561ZM532.411 325V320.031H537.38V325H532.411ZM541.262 325V320.031H546.23V325H541.262ZM550.112 325V320.031H555.081V325H550.112ZM558.963 325V320.031H563.932V325H558.963ZM572.938 325V300.156H567.969V296.844H569.625V295.188H571.281V293.531H572.938V291.875H577.906V325H572.938ZM599.852 320.031V318.375H601.508V311.75H599.852V310.094H598.195V308.438H591.57V310.094H589.914V311.75H588.258V318.375H589.914V320.031H599.852ZM598.195 305.125V303.469H599.852V298.5H598.195V296.844H591.57V298.5H589.914V303.469H591.57V305.125H598.195ZM589.914 325V323.344H586.602V321.688H584.945V318.375H583.289V311.75H584.945V308.438H586.602V306.781H588.258V305.125H586.602V303.469H584.945V298.5H586.602V295.188H588.258V293.531H591.57V291.875H598.195V293.531H601.508V295.188H603.164V298.5H604.82V303.469H603.164V305.125H601.508V306.781H603.164V308.438H604.82V311.75H606.477V318.375H604.82V321.688H603.164V323.344H599.852V325H589.914ZM610.151 325V320.031H615.12V325H610.151ZM624.126 325V300.156H619.157V296.844H620.813V295.188H622.47V293.531H624.126V291.875H629.095V325H624.126ZM651.144 320.031V318.375H652.8V313.406H654.456V303.469H652.8V298.5H651.144V296.844H642.862V298.5H641.206V303.469H639.55V313.406H641.206V318.375H642.862V320.031H651.144ZM641.206 325V323.344H637.894V320.031H636.237V315.062H634.581V301.812H636.237V296.844H637.894V293.531H641.206V291.875H652.8V293.531H656.112V296.844H657.769V301.812H659.425V315.062H657.769V320.031H656.112V323.344H652.8V325H641.206ZM680.904 320.031V318.375H682.561V313.406H684.217V303.469H682.561V298.5H680.904V296.844H672.623V298.5H670.967V303.469H669.311V313.406H670.967V318.375H672.623V320.031H680.904ZM670.967 325V323.344H667.654V320.031H665.998V315.062H664.342V301.812H665.998V296.844H667.654V293.531H670.967V291.875H682.561V293.531H685.873V296.844H687.529V301.812H689.186V315.062H687.529V320.031H685.873V323.344H682.561V325H670.967ZM711.183 320.031V318.375H712.839V311.75H711.183V310.094H699.589V320.031H711.183ZM709.526 305.125V303.469H711.183V298.5H709.526V296.844H699.589V305.125H709.526ZM694.62 325V291.875H711.183V293.531H712.839V295.188H714.495V296.844H716.151V305.125H714.495V308.438H716.151V310.094H717.808V320.031H716.151V321.688H714.495V323.344H712.839V325H694.62ZM35.9502 378V344.875H44.2314V349.844H45.8877V353.156H47.5439V358.125H49.2002V363.094H50.8564V369.719H52.5127V363.094H54.1689V358.125H55.8252V353.156H57.4814V349.844H59.1377V344.875H67.4189V378H62.4502V353.156H60.7939V356.469H59.1377V363.094H57.4814V369.719H55.8252V374.688H54.1689V378H49.2002V374.688H47.5439V369.719H45.8877V363.094H44.2314V356.469H42.5752V353.156H40.9189V378H35.9502ZM73.4229 378V353.156H78.3916V378H73.4229ZM73.4229 349.844V344.875H78.3916V349.844H73.4229ZM84.1885 378V353.156H89.1572V356.469H90.8135V354.812H92.4697V353.156H97.4385V354.812H100.751V356.469H102.407V359.781H104.063V378H99.0947V359.781H97.4385V358.125H92.4697V359.781H90.8135V361.438H89.1572V378H84.1885ZM121.765 373.031V371.375H123.421V369.719H125.077V361.438H123.421V359.781H121.765V358.125H115.14V359.781H113.483V371.375H115.14V373.031H121.765ZM115.14 378V376.344H111.827V374.688H110.171V371.375H108.515V359.781H110.171V356.469H111.827V354.812H115.14V353.156H121.765V354.812H123.421V356.469H125.077V344.875H130.046V378H125.077V374.688H123.421V376.344H121.765V378H115.14ZM138.896 378V376.344H137.24V374.688H135.584V371.375H137.24V369.719H138.896V371.375H140.553V373.031H142.209V374.688H145.521V373.031H147.178V369.719H145.521V368.062H143.865V366.406H140.553V364.75H138.896V363.094H137.24V361.438H135.584V356.469H137.24V354.812H138.896V353.156H148.834V354.812H150.49V359.781H147.178V358.125H145.521V356.469H142.209V358.125H140.553V359.781H142.209V361.438H143.865V363.094H147.178V364.75H148.834V366.406H150.49V368.062H152.146V374.688H150.49V376.344H148.834V378H138.896ZM184.806 373.031V371.375H186.462V369.719H188.118V361.438H186.462V359.781H184.806V358.125H178.181V359.781H176.524V371.375H178.181V373.031H184.806ZM178.181 378V376.344H174.868V374.688H173.212V371.375H171.556V359.781H173.212V356.469H174.868V354.812H178.181V353.156H184.806V354.812H186.462V356.469H188.118V353.156H193.087V378H188.118V374.688H186.462V376.344H184.806V378H178.181ZM198.47 378V353.156H203.438V356.469H205.095V354.812H206.751V353.156H211.72V354.812H215.032V356.469H216.688V359.781H218.345V378H213.376V359.781H211.72V358.125H206.751V359.781H205.095V361.438H203.438V378H198.47ZM236.046 373.031V371.375H237.702V369.719H239.358V361.438H237.702V359.781H236.046V358.125H229.421V359.781H227.765V371.375H229.421V373.031H236.046ZM229.421 378V376.344H226.108V374.688H224.452V371.375H222.796V359.781H224.452V356.469H226.108V354.812H229.421V353.156H236.046V354.812H237.702V356.469H239.358V344.875H244.327V378H239.358V374.688H237.702V376.344H236.046V378H229.421ZM265.341 378V344.875H273.622V349.844H275.278V353.156H276.935V358.125H278.591V363.094H280.247V369.719H281.903V363.094H283.56V358.125H285.216V353.156H286.872V349.844H288.528V344.875H296.81V378H291.841V353.156H290.185V356.469H288.528V363.094H286.872V369.719H285.216V374.688H283.56V378H278.591V374.688H276.935V369.719H275.278V363.094H273.622V356.469H271.966V353.156H270.31V378H265.341ZM315.287 373.031V371.375H316.943V369.719H318.6V361.438H316.943V359.781H315.287V358.125H308.662V359.781H307.006V371.375H308.662V373.031H315.287ZM308.662 378V376.344H305.35V374.688H303.693V371.375H302.037V359.781H303.693V356.469H305.35V354.812H308.662V353.156H315.287V354.812H316.943V356.469H318.6V353.156H323.568V378H318.6V374.688H316.943V376.344H315.287V378H308.662ZM335.007 378V376.344H331.694V374.688H330.038V371.375H328.382V359.781H330.038V356.469H331.694V354.812H335.007V353.156H341.632V354.812H344.944V356.469H346.601V361.438H343.288V359.781H341.632V358.125H335.007V359.781H333.351V371.375H335.007V373.031H341.632V371.375H343.288V369.719H346.601V374.688H344.944V376.344H341.632V378H335.007ZM351.983 378V344.875H356.952V356.469H358.608V354.812H360.265V353.156H366.89V354.812H370.202V356.469H371.858V359.781H373.515V378H368.546V359.781H366.89V358.125H360.265V359.781H358.608V361.438H356.952V378H351.983ZM378.949 378V353.156H383.918V378H378.949ZM378.949 349.844V344.875H383.918V349.844H378.949ZM389.715 378V353.156H394.684V356.469H396.34V354.812H397.996V353.156H402.965V354.812H406.277V356.469H407.934V359.781H409.59V378H404.621V359.781H402.965V358.125H397.996V359.781H396.34V361.438H394.684V378H389.715ZM429.154 363.094V359.781H427.498V358.125H420.873V359.781H419.217V363.094H429.154ZM420.873 378V376.344H417.561V374.688H415.904V371.375H414.248V359.781H415.904V356.469H417.561V354.812H420.873V353.156H427.498V354.812H430.811V356.469H432.467V359.781H434.123V366.406H419.217V371.375H420.873V373.031H427.498V371.375H429.154V369.719H434.123V373.031H432.467V374.688H430.811V376.344H427.498V378H420.873ZM442.094 378V376.344H440.438V374.688H438.781V371.375H440.438V369.719H442.094V371.375H443.75V373.031H445.406V374.688H448.719V373.031H450.375V369.719H448.719V368.062H447.062V366.406H443.75V364.75H442.094V363.094H440.438V361.438H438.781V356.469H440.438V354.812H442.094V353.156H452.031V354.812H453.688V359.781H450.375V358.125H448.719V356.469H445.406V358.125H443.75V359.781H445.406V361.438H447.062V363.094H450.375V364.75H452.031V366.406H453.688V368.062H455.344V374.688H453.688V376.344H452.031V378H442.094ZM458.967 378V373.031H463.936V378H458.967ZM467.817 378V373.031H472.786V378H467.817ZM476.668 378V373.031H481.637V378H476.668ZM485.519 378V373.031H490.487V378H485.519ZM494.369 378V373.031H499.338V378H494.369ZM503.22 378V373.031H508.188V378H503.22ZM512.07 378V373.031H517.039V378H512.07ZM520.921 378V373.031H525.89V378H520.921ZM529.771 378V373.031H534.74V378H529.771ZM538.622 378V373.031H543.591V378H538.622ZM547.473 378V373.031H552.441V378H547.473ZM556.323 378V373.031H561.292V378H556.323ZM565.174 378V373.031H570.143V378H565.174ZM574.024 378V373.031H578.993V378H574.024ZM582.875 378V373.031H587.844V378H582.875ZM591.726 378V373.031H596.694V378H591.726ZM601.767 378V373.031H603.423V371.375H605.079V369.719H606.735V368.062H608.392V366.406H610.048V364.75H611.704V363.094H613.36V361.438H615.017V359.781H616.673V358.125H618.329V351.5H616.673V349.844H610.048V351.5H608.392V353.156H606.735V356.469H601.767V353.156H603.423V349.844H605.079V348.188H606.735V346.531H608.392V344.875H618.329V346.531H619.985V348.188H621.642V349.844H623.298V359.781H621.642V361.438H619.985V363.094H618.329V364.75H616.673V366.406H615.017V368.062H613.36V369.719H611.704V371.375H610.048V373.031H624.954V378H601.767ZM643.587 364.75V353.156H641.931V354.812H640.274V356.469H638.618V358.125H636.962V359.781H635.306V361.438H633.649V364.75H643.587ZM643.587 378V369.719H628.681V359.781H630.337V358.125H631.993V356.469H633.649V354.812H635.306V353.156H636.962V351.5H638.618V349.844H640.274V348.188H641.931V346.531H643.587V344.875H648.556V364.75H653.524V369.719H648.556V378H643.587ZM656.423 378V373.031H661.392V378H656.423ZM682.871 373.031V371.375H684.527V366.406H686.184V356.469H684.527V351.5H682.871V349.844H674.59V351.5H672.934V356.469H671.277V366.406H672.934V371.375H674.59V373.031H682.871ZM672.934 378V376.344H669.621V373.031H667.965V368.062H666.309V354.812H667.965V349.844H669.621V346.531H672.934V344.875H684.527V346.531H687.84V349.844H689.496V354.812H691.152V368.062H689.496V373.031H687.84V376.344H684.527V378H672.934ZM711.286 359.781V358.125H712.942V351.5H711.286V349.844H703.005V351.5H701.349V358.125H703.005V359.781H711.286ZM701.349 378V376.344H698.036V373.031H696.38V369.719H701.349V371.375H703.005V373.031H711.286V371.375H712.942V366.406H714.599V361.438H712.942V363.094H711.286V364.75H699.692V363.094H698.036V359.781H696.38V351.5H698.036V346.531H701.349V344.875H712.942V346.531H716.255V349.844H717.911V354.812H719.567V368.062H717.911V373.031H716.255V376.344H712.942V378H701.349Z" fill="black"/>
<path d="M799.701 41H750V142H799.701C814.26 142 815.264 41 799.701 41Z" stroke="black"/>
<path d="M770 66.4814H791.25V79.2314H788.062V69.6689H782.75V79.2314H779.562V69.6689H770V66.4814ZM770 82.8506H773.188V83.9131H774.25V84.9756H775.312V86.0381H776.375V87.1006H777.438V88.1631H778.5V89.2256H779.562V90.2881H780.625V91.3506H781.688V92.4131H782.75V93.4756H787V92.4131H788.062V88.1631H787V87.1006H785.938V86.0381H783.812V82.8506H785.938V83.9131H788.062V84.9756H789.125V86.0381H790.188V87.1006H791.25V93.4756H790.188V94.5381H789.125V95.6006H788.062V96.6631H781.688V95.6006H780.625V94.5381H779.562V93.4756H778.5V92.4131H777.438V91.3506H776.375V90.2881H775.312V89.2256H774.25V88.1631H773.188V97.7256H770V82.8506ZM773.188 111.505H774.25V112.567H777.438V113.63H783.812V112.567H787V111.505H788.062V106.192H787V105.13H783.812V104.067H777.438V105.13H774.25V106.192H773.188V111.505ZM770 105.13H771.062V103.005H773.188V101.942H776.375V100.88H784.875V101.942H788.062V103.005H790.188V105.13H791.25V112.567H790.188V114.692H788.062V115.755H784.875V116.817H776.375V115.755H773.188V114.692H771.062V112.567H770V105.13Z" fill="black"/>
<path d="M799.701 151H750V252H799.701C814.26 252 815.264 151 799.701 151Z" fill="#FFB340" stroke="black"/>
<path d="M770 180.316H771.062V178.191H772.125V177.129H773.188V176.066H775.312V179.254H774.25V180.316H773.188V185.629H774.25V186.691H777.438V185.629H778.5V184.566H779.562V181.379H780.625V178.191H781.688V177.129H782.75V176.066H788.062V177.129H789.125V178.191H790.188V179.254H791.25V186.691H790.188V187.754H789.125V188.816H787V185.629H788.062V180.316H787V179.254H783.812V181.379H782.75V184.566H781.688V186.691H780.625V188.816H778.5V189.879H773.188V188.816H772.125V187.754H771.062V185.629H770V180.316ZM770 193.1H773.188V194.162H774.25V195.225H775.312V196.287H776.375V197.35H777.438V198.412H778.5V199.475H779.562V200.537H780.625V201.6H781.688V202.662H782.75V203.725H787V202.662H788.062V198.412H787V197.35H785.938V196.287H783.812V193.1H785.938V194.162H788.062V195.225H789.125V196.287H790.188V197.35H791.25V203.725H790.188V204.787H789.125V205.85H788.062V206.912H781.688V205.85H780.625V204.787H779.562V203.725H778.5V202.662H777.438V201.6H776.375V200.537H775.312V199.475H774.25V198.412H773.188V207.975H770V193.1ZM773.188 221.754H774.25V222.816H777.438V223.879H783.812V222.816H787V221.754H788.062V216.441H787V215.379H783.812V214.316H777.438V215.379H774.25V216.441H773.188V221.754ZM770 215.379H771.062V213.254H773.188V212.191H776.375V211.129H784.875V212.191H788.062V213.254H790.188V215.379H791.25V222.816H790.188V224.941H788.062V226.004H784.875V227.066H776.375V226.004H773.188V224.941H771.062V222.816H770V215.379Z" fill="black"/>
<path d="M770 291.312H791.25V304.062H788.062V294.5H782.75V304.062H779.562V294.5H770V291.312ZM770 310.205H785.938V307.018H788.062V308.08H789.125V309.143H790.188V310.205H791.25V313.393H770V310.205ZM781.688 326.674H782.75V327.736H787V326.674H788.062V321.361H787V320.299H782.75V321.361H781.688V326.674ZM770 320.299H771.062V318.174H773.188V317.111H775.312V320.299H774.25V321.361H773.188V326.674H774.25V327.736H777.438V328.799H780.625V327.736H779.562V326.674H778.5V319.236H779.562V318.174H781.688V317.111H787V318.174H790.188V320.299H791.25V327.736H790.188V329.861H788.062V330.924H784.875V331.986H776.375V330.924H773.188V329.861H771.062V327.736H770V320.299Z" fill="black"/>
<path d="M799.701 261H750V362H799.701C814.26 362 815.264 261 799.701 261Z" stroke="black"/>
</svg>
