<?xml version="1.0" standalone="no"?>
<!DOCTYPE svg PUBLIC "-//W3C//DTD SVG 20010904//EN"
 "http://www.w3.org/TR/2001/REC-SVG-20010904/DTD/svg10.dtd">
<svg version="1.0" xmlns="http://www.w3.org/2000/svg"
 width="712.000000pt" height="712.000000pt" viewBox="0 0 712.000000 712.000000"
 preserveAspectRatio="xMidYMid meet">
<metadata>
Created by potrace 1.11, written by Peter Selinger 2001-2013
</metadata>
<g transform="translate(0.000000,712.000000) scale(0.100000,-0.100000)"
fill="#000000" stroke="none">
<path d="M2434 6115 c6 -17 -21 -28 -28 -12 -3 8 -5 8 -5 1 -1 -6 -12 -9 -26
-6 -16 3 -27 -1 -30 -10 -4 -9 -16 -14 -31 -12 -13 1 -22 -1 -19 -6 3 -4 -2
-11 -11 -14 -8 -3 -13 -10 -10 -15 3 -5 -8 -8 -24 -7 -32 2 -30 5 -33 -71 0
-18 -8 -31 -21 -36 -17 -7 -18 -10 -6 -17 10 -7 11 -10 3 -10 -7 0 -13 -7 -13
-15 0 -9 -6 -12 -17 -8 -12 5 -14 3 -8 -8 12 -19 14 -49 3 -49 -5 0 -4 -8 1
-18 6 -11 6 -24 1 -32 -5 -9 -5 -19 1 -26 7 -8 6 -14 -1 -19 -6 -3 -8 -11 -4
-16 3 -5 10 -7 15 -4 5 4 12 -7 15 -24 4 -17 10 -28 15 -25 8 4 11 -10 8 -32
0 -4 5 -11 13 -15 8 -6 9 -9 1 -9 -6 0 -10 -6 -9 -12 3 -20 17 -39 24 -34 11
7 58 -21 52 -31 -3 -4 10 -9 28 -11 20 -2 32 -9 32 -18 0 -8 5 -12 10 -9 14 8
52 -4 45 -15 -3 -5 -1 -11 4 -14 5 -4 12 -2 16 4 3 6 14 7 23 2 21 -9 43 -9
60 1 6 5 12 4 12 -2 0 -6 11 -6 29 -1 16 4 32 5 36 2 13 -13 33 -9 38 8 3 13
12 18 31 16 14 -2 34 3 43 10 10 7 26 14 35 14 9 0 21 7 26 16 5 9 12 15 15
15 21 -3 25 1 20 19 -4 14 0 20 11 20 14 0 21 11 17 33 0 4 4 7 10 7 5 0 7 5
4 10 -3 6 -2 10 3 10 12 0 34 49 26 61 -3 5 -2 9 3 8 26 -5 31 2 23 31 -6 21
-5 30 3 30 8 0 7 3 -2 9 -11 7 -11 9 0 14 12 5 12 7 0 15 -8 6 -9 12 -3 16 13
8 3 49 -15 59 -7 5 -11 12 -8 18 4 5 1 9 -4 9 -6 0 -10 6 -9 13 2 6 -3 11 -11
9 -8 -2 -11 3 -8 11 3 8 -1 24 -8 35 -8 10 -11 23 -7 27 4 5 1 5 -6 1 -8 -5
-16 2 -22 18 -5 14 -14 26 -20 26 -6 0 -8 5 -5 10 3 6 -1 10 -9 10 -9 0 -16 6
-16 13 0 8 -3 8 -9 -2 -7 -11 -11 -10 -22 7 -10 16 -17 19 -32 10 -15 -7 -22
-7 -28 3 -7 11 -9 11 -9 -1 -1 -10 -5 -7 -13 8 -10 17 -15 20 -25 10 -7 -7
-12 -8 -12 -2 0 6 -20 10 -45 10 -25 -1 -45 -4 -45 -9 0 -4 -5 -5 -11 -2 -21
13 -60 13 -55 0z"/>
<path d="M4262 6123 c-6 -3 -10 -9 -6 -14 3 -5 -1 -9 -9 -9 -8 0 -17 -6 -20
-14 -4 -10 -15 -13 -32 -10 -16 3 -24 1 -21 -5 4 -5 -7 -18 -23 -27 -17 -10
-28 -21 -25 -25 6 -10 -37 -40 -48 -33 -5 3 -8 2 -7 -3 5 -28 -3 -53 -17 -53
-10 0 -14 -6 -10 -15 3 -8 -1 -21 -10 -27 -38 -32 -52 -51 -47 -64 3 -8 -1
-14 -11 -14 -15 0 -20 -11 -17 -38 1 -7 -5 -15 -14 -18 -9 -4 -14 -13 -11 -20
3 -8 -3 -22 -13 -31 -10 -10 -17 -26 -16 -36 2 -9 0 -15 -3 -13 -7 4 -33 -19
-32 -29 1 -21 -1 -26 -9 -21 -5 3 -11 -8 -15 -25 -3 -18 -10 -28 -17 -24 -5 4
-10 1 -8 -6 3 -28 -1 -39 -17 -39 -9 0 -14 -7 -12 -17 2 -10 -5 -26 -14 -35
-10 -10 -15 -24 -12 -32 3 -8 0 -17 -5 -21 -6 -3 -9 -11 -6 -16 4 -5 1 -9 -6
-9 -6 0 -9 -8 -6 -20 3 -13 0 -20 -8 -20 -14 0 -31 -37 -21 -47 8 -8 -14 -44
-23 -39 -5 3 -7 -26 -6 -65 1 -38 -2 -72 -7 -75 -5 -3 -5 -11 -1 -17 4 -7 8
-40 8 -74 1 -50 -2 -60 -15 -58 -13 2 -15 -16 -14 -130 0 -113 3 -135 18 -150
14 -14 15 -20 4 -26 -10 -7 -10 -9 1 -9 8 0 11 -3 8 -6 -3 -4 -2 -16 4 -27 8
-14 8 -18 0 -13 -6 4 -11 3 -11 -2 0 -5 8 -12 18 -14 15 -4 17 -15 15 -76 -1
-40 1 -71 5 -71 23 4 29 -3 24 -28 -3 -16 1 -30 9 -37 16 -12 18 -25 7 -42 -4
-6 2 -21 13 -33 11 -12 21 -30 22 -41 1 -11 7 -20 13 -20 15 0 25 -38 13 -46
-6 -3 2 -16 17 -29 19 -16 23 -24 13 -28 -11 -4 -11 -6 -1 -6 7 -1 10 -6 6
-13 -5 -8 -2 -9 9 -5 9 3 16 3 16 -1 -4 -24 3 -42 16 -42 9 0 15 -6 14 -12 -3
-26 1 -39 11 -33 9 6 11 2 14 -35 1 -8 7 -14 13 -13 5 1 9 -9 7 -22 -1 -16 4
-26 15 -30 13 -4 17 -15 16 -40 -2 -24 2 -35 11 -35 14 0 18 -12 14 -39 -1 -9
4 -12 15 -7 9 3 13 2 10 -3 -3 -5 -1 -12 5 -16 6 -4 7 -12 1 -23 -7 -12 -1
-23 23 -45 17 -17 30 -34 28 -39 -1 -4 3 -8 9 -8 8 0 8 -5 -1 -15 -9 -11 -10
-18 -1 -28 6 -8 7 -18 3 -22 -4 -5 -2 -5 5 -2 12 7 36 -47 26 -57 -4 -3 -2 -6
4 -6 5 0 9 -10 8 -22 -3 -30 4 -48 19 -48 8 0 11 -52 11 -182 0 -146 3 -182
13 -180 8 1 13 -5 12 -15 -1 -10 -1 -20 0 -23 6 -16 4 -70 -3 -70 -5 0 -5 -6
-1 -12 10 -16 13 -48 4 -48 -3 0 -6 -9 -6 -20 0 -11 4 -20 9 -20 5 0 4 -6 -2
-13 -6 -8 -8 -17 -4 -21 9 -9 11 -46 3 -46 -8 0 -6 -37 2 -46 9 -8 -13 -55
-23 -49 -4 3 -7 -32 -7 -77 0 -111 0 -108 -18 -108 -8 0 -12 -5 -9 -10 4 -6 3
-19 -1 -28 -8 -20 -13 -45 -17 -87 -1 -16 -6 -28 -11 -27 -13 5 -28 -26 -20
-40 11 -18 12 -48 2 -42 -5 3 -7 -6 -4 -20 3 -19 0 -26 -10 -26 -11 0 -14 -8
-12 -27 2 -18 -5 -36 -19 -51 -18 -19 -20 -29 -12 -43 9 -18 3 -24 -22 -21 -4
1 -6 -11 -7 -26 0 -68 -3 -83 -12 -77 -5 3 -11 0 -11 -7 -1 -7 -2 -17 -4 -23
-1 -5 -3 -20 -3 -33 -1 -13 -6 -20 -12 -17 -5 3 -11 1 -11 -4 -1 -6 -2 -16 -3
-21 0 -6 -6 -14 -12 -18 -7 -4 -12 -16 -12 -27 1 -42 -2 -56 -12 -50 -10 6
-14 -7 -11 -32 3 -18 -19 -54 -28 -49 -4 3 -7 -5 -6 -17 3 -28 -13 -59 -25
-52 -6 4 -7 -1 -3 -11 4 -10 0 -22 -11 -30 -10 -6 -16 -18 -14 -26 1 -7 -2
-14 -7 -16 -6 -2 -14 -10 -18 -18 -4 -8 -14 -14 -22 -14 -8 0 -11 -7 -8 -20 3
-12 -1 -22 -11 -26 -9 -3 -13 -10 -10 -16 3 -5 -4 -12 -16 -15 -13 -3 -19 -11
-16 -19 3 -8 1 -14 -4 -14 -6 0 -10 -7 -10 -16 0 -8 -4 -13 -9 -10 -4 3 -8 -2
-7 -12 0 -9 -3 -18 -8 -19 -16 -3 -25 -27 -14 -40 7 -9 7 -13 -2 -13 -7 0 -10
-6 -7 -14 4 -9 -8 -23 -29 -38 -18 -12 -34 -27 -34 -31 0 -5 -5 -5 -12 -1 -7
5 -10 1 -6 -12 3 -13 -8 -31 -34 -56 -21 -21 -38 -35 -38 -32 0 3 -7 -1 -15
-10 -8 -8 -15 -19 -15 -25 0 -6 -7 -11 -16 -11 -10 0 -14 -6 -10 -15 3 -8 0
-15 -6 -15 -9 0 -9 -3 0 -12 7 -7 8 -17 1 -30 -7 -12 -6 -18 2 -18 6 0 9 -6 6
-14 -3 -8 7 -24 23 -36 16 -13 27 -26 25 -30 -3 -5 3 -6 14 -3 10 3 22 0 25
-6 5 -8 13 -8 27 -1 11 6 24 8 29 5 6 -3 10 1 10 9 0 15 19 20 65 17 12 -1 34
5 50 13 17 9 36 16 43 16 6 0 12 7 12 16 0 13 3 14 14 5 12 -10 19 -8 36 9 12
12 27 19 33 17 7 -2 18 3 26 10 8 8 22 12 32 10 11 -3 19 2 22 14 3 12 12 17
26 14 12 -2 20 -1 17 3 -2 4 7 12 20 19 18 8 24 8 24 0 0 -7 12 3 26 21 14 17
32 32 40 32 8 0 14 7 14 16 0 8 4 13 8 10 5 -3 14 3 21 13 9 12 21 16 34 13
12 -3 18 -1 14 5 -7 11 28 45 37 36 3 -4 6 -1 6 5 0 6 9 14 20 17 11 3 20 13
20 20 0 8 6 12 14 9 11 -4 14 1 12 20 -2 14 0 26 4 26 12 0 50 37 50 49 0 6 7
11 16 11 8 0 13 4 9 9 -3 5 3 12 14 16 13 4 18 13 16 25 -3 15 2 20 17 20 14
0 18 5 14 16 -5 13 -2 15 13 11 11 -3 25 0 30 7 9 11 11 17 11 38 0 6 3 9 6 5
3 -3 15 4 26 15 11 11 17 22 14 25 -9 9 14 44 25 38 5 -4 9 1 9 9 0 9 6 15 13
13 6 -1 13 5 13 13 1 8 2 20 3 26 0 6 9 11 19 11 35 0 40 3 35 23 -4 14 -1 20
8 18 9 -2 15 7 17 24 2 16 7 28 12 28 5 0 8 16 6 35 -1 24 2 35 11 35 12 0 14
5 17 37 1 7 6 13 11 14 14 1 27 27 20 40 -4 6 1 13 12 15 14 4 18 14 17 39 -1
24 3 34 16 38 13 3 17 12 14 35 -2 20 2 32 11 36 8 3 15 16 15 30 0 34 10 57
22 49 7 -4 9 4 6 20 -3 15 0 28 6 31 7 3 6 5 -2 5 -10 1 -10 4 0 15 7 8 16 12
20 10 3 -2 4 6 0 18 -3 14 -2 19 6 14 7 -4 13 -1 14 6 0 7 2 18 2 23 1 6 4 15
8 20 4 6 4 16 0 22 -4 6 -6 45 -4 87 3 59 7 76 18 76 9 0 13 4 9 9 -3 5 -1 12
4 16 7 4 7 15 0 33 -7 19 -7 28 1 30 8 3 8 8 0 17 -9 10 -7 18 7 32 10 10 19
32 20 48 1 58 3 66 12 61 15 -10 17 14 16 176 -1 101 2 155 8 151 6 -4 7 -1 1
8 -13 21 -13 299 0 299 8 0 8 3 1 8 -6 4 -11 18 -10 32 0 14 -7 34 -15 46 -12
16 -15 49 -14 150 1 108 -2 131 -15 144 -9 8 -17 23 -18 33 -2 42 -4 48 -13
42 -6 -4 -10 10 -10 35 0 23 -4 39 -9 36 -5 -3 -14 1 -20 8 -7 8 -8 16 -4 19
14 9 7 82 -10 107 -10 15 -13 28 -8 33 10 10 -10 37 -27 37 -5 0 -8 11 -7 24
3 22 -17 42 -37 38 -10 -2 -20 36 -13 47 6 10 -40 61 -54 61 -5 0 -7 13 -6 30
1 16 -1 27 -6 24 -5 -3 -16 2 -25 10 -8 9 -12 16 -8 16 3 0 1 7 -6 15 -10 12
-10 15 1 16 8 0 4 5 -8 11 -16 8 -22 18 -19 34 5 23 -15 49 -28 37 -4 -4 -4 1
0 10 5 13 1 20 -14 23 -13 4 -18 12 -15 25 4 13 0 19 -11 19 -9 0 -17 5 -17
10 -1 6 -2 16 -3 23 0 6 -6 12 -13 12 -6 0 -15 3 -19 8 -4 4 -1 7 6 7 7 0 10
3 6 8 -4 4 -11 7 -15 7 -3 0 -17 10 -31 23 -13 12 -18 22 -11 22 7 0 9 5 4 13
-8 12 -9 17 -12 38 0 5 -5 7 -11 4 -6 -3 -10 5 -10 18 0 14 -7 28 -16 31 -11
4 -14 13 -10 31 4 15 2 25 -4 25 -6 0 -8 5 -5 10 3 6 0 10 -8 10 -11 0 -13 20
-13 98 2 107 -1 122 -18 122 -7 0 -11 23 -11 68 1 37 -4 70 -9 74 -8 5 -8 8
-1 8 7 0 11 65 10 194 -1 174 1 195 16 199 12 3 16 13 13 36 -3 23 2 33 18 42
16 9 18 13 7 20 -12 7 -12 9 0 9 10 0 11 3 3 13 -6 7 -7 18 -3 25 4 7 6 28 5
47 -2 23 1 34 9 32 8 -1 12 16 12 56 0 31 3 57 7 57 4 0 3 11 -2 25 -5 14 -7
25 -3 25 4 0 -1 6 -11 13 -9 7 -16 17 -14 22 2 6 0 10 -4 10 -4 0 -15 10 -24
23 -11 17 -19 20 -28 13 -7 -6 -15 -8 -19 -5 -11 11 -57 11 -57 0 0 -8 -2 -8
-8 0 -4 6 -13 9 -20 7z"/>
<path d="M2644 4919 c-3 -6 -14 -9 -24 -6 -9 2 -22 -3 -27 -12 -8 -13 -24 -17
-62 -15 -38 1 -51 -3 -51 -13 0 -8 -4 -12 -9 -9 -12 8 -42 -4 -36 -14 2 -4 -9
-7 -25 -8 -40 -1 -54 -10 -40 -27 6 -7 8 -19 4 -28 -3 -10 2 -17 14 -21 20 -7
26 -36 8 -36 -6 -1 3 -8 19 -17 17 -9 25 -18 17 -21 -6 -2 -9 -9 -5 -15 4 -6
7 -23 7 -37 1 -14 6 -24 13 -23 6 2 14 -6 18 -16 3 -10 15 -23 27 -28 19 -8
22 -17 20 -54 -3 -39 0 -46 28 -64 16 -11 30 -26 30 -33 0 -7 5 -10 10 -7 6 3
13 -1 16 -9 3 -9 12 -16 19 -16 8 0 12 -8 10 -20 -2 -11 1 -20 6 -20 6 0 7 -4
4 -10 -3 -5 -2 -10 3 -10 5 0 9 -34 8 -75 0 -42 3 -77 9 -79 6 -3 6 -5 0 -5
-6 -1 -10 -21 -9 -47 1 -29 -3 -47 -11 -50 -8 -3 -12 -19 -10 -40 1 -19 -3
-37 -8 -41 -6 -4 -7 -1 -2 8 8 12 6 12 -8 0 -9 -7 -15 -17 -12 -21 8 -12 -6
-41 -16 -34 -5 3 -10 -6 -10 -20 -1 -14 -3 -30 -4 -36 -1 -5 -3 -14 -4 -20 0
-5 -4 -9 -8 -9 -19 3 -21 -3 -13 -31 5 -16 5 -29 2 -29 -20 3 -28 -3 -29 -21
-1 -11 -8 -27 -17 -35 -8 -8 -13 -23 -12 -32 2 -10 -2 -21 -8 -25 -8 -6 -7
-11 3 -17 11 -7 10 -12 -7 -26 -11 -10 -18 -24 -15 -32 3 -8 0 -13 -7 -11 -7
2 -14 -6 -16 -17 -1 -11 -9 -24 -17 -30 -8 -5 -13 -18 -11 -29 2 -11 -5 -20
-17 -23 -13 -4 -19 -13 -17 -27 2 -17 -3 -22 -29 -24 -35 -3 -40 -11 -21 -30
12 -12 10 -13 -14 -16 -7 0 -15 -12 -16 -26 -2 -14 -8 -29 -13 -35 -5 -5 -9
-17 -9 -28 0 -10 -4 -15 -10 -12 -9 6 -11 2 -14 -35 -1 -8 -7 -14 -14 -12 -7
1 -13 -5 -13 -13 -3 -35 -5 -40 -17 -37 -10 2 -17 -25 -13 -50 0 -5 -5 -8 -13
-8 -7 0 -16 -9 -19 -20 -3 -11 -1 -20 4 -20 4 0 6 -7 3 -15 -3 -8 -11 -13 -17
-12 -7 1 -13 -10 -15 -25 -2 -16 -9 -28 -16 -28 -8 0 -13 -12 -14 -27 0 -49
-2 -54 -14 -47 -6 4 -8 3 -4 -4 3 -6 2 -14 -4 -17 -8 -5 -7 -11 1 -21 9 -11 9
-14 0 -14 -7 0 -10 -4 -6 -9 3 -5 -4 -12 -15 -16 -12 -4 -17 -11 -13 -18 12
-19 9 -58 -5 -75 -7 -10 -10 -11 -6 -3 4 9 3 12 -3 8 -6 -4 -10 -24 -9 -46 1
-28 -2 -37 -11 -34 -7 3 -14 0 -14 -6 -1 -6 -3 -24 -4 -41 -4 -50 -5 -51 -15
-45 -12 7 -11 13 -13 -187 -2 -144 -4 -158 -22 -171 -15 -12 -17 -18 -7 -29 9
-11 9 -17 -1 -28 -10 -10 -9 -11 2 -5 10 6 12 4 5 -6 -12 -20 -14 -39 -3 -39
6 0 7 -5 4 -10 -10 -16 -12 -110 -3 -110 5 0 4 -9 -2 -19 -7 -14 -7 -22 0 -26
8 -5 7 -12 -2 -23 -11 -13 -11 -14 1 -7 11 6 12 5 5 -6 -12 -20 -14 -39 -3
-39 6 0 7 -5 4 -10 -10 -16 -12 -110 -2 -110 4 0 5 -4 2 -10 -3 -5 -7 -25 -9
-45 -2 -26 2 -36 16 -41 13 -4 17 -14 15 -37 -1 -21 2 -31 11 -30 12 3 13 0
16 -34 1 -10 5 -23 9 -30 4 -6 3 -14 -2 -18 -13 -7 -3 -35 12 -32 6 1 12 -5
13 -13 3 -36 5 -40 17 -37 7 1 11 -7 9 -22 -3 -18 0 -22 11 -18 9 3 18 -1 21
-9 3 -8 0 -14 -6 -14 -7 0 -5 -7 4 -17 21 -25 29 -51 17 -58 -10 -7 13 -35 30
-35 6 0 8 -7 4 -16 -5 -15 33 -52 50 -46 4 1 7 -5 7 -13 0 -9 7 -18 15 -21 8
-4 13 -9 10 -14 -2 -4 5 -17 16 -29 11 -12 17 -26 14 -31 -3 -5 6 -17 20 -26
14 -9 25 -23 25 -30 0 -14 15 -18 58 -14 12 1 22 -3 22 -8 0 -5 11 -15 25 -22
13 -7 22 -16 20 -20 -5 -9 47 -6 63 4 7 4 9 12 6 18 -5 7 0 9 15 5 25 -6 53
17 45 38 -4 9 0 15 9 15 20 0 22 86 2 94 -10 4 -15 20 -15 51 0 32 -4 45 -14
45 -11 0 -14 52 -14 311 0 247 2 309 13 306 7 -3 12 2 12 11 0 73 4 92 18 92
13 0 15 12 13 65 -2 36 0 65 4 65 4 0 5 7 2 15 -4 10 0 15 11 15 9 0 16 7 14
18 -3 32 1 42 17 42 8 0 12 5 9 10 -4 6 -1 18 7 27 11 14 11 16 -2 9 -10 -5
-9 -3 2 6 10 9 15 25 14 41 -3 24 4 31 26 28 3 0 5 12 3 27 -3 27 17 67 28 56
3 -3 4 6 3 20 -2 17 2 26 10 26 13 0 18 12 15 37 -1 6 7 14 16 17 14 4 18 15
17 41 -1 19 1 33 5 30 4 -2 14 4 22 13 36 44 43 55 32 48 -7 -4 -13 -5 -13 -3
0 8 39 48 47 49 4 1 7 9 5 20 -2 10 1 18 7 18 5 0 21 11 35 23 18 17 22 27 15
34 -8 8 -8 13 0 17 5 4 8 13 4 21 -4 11 -1 13 13 8 13 -5 16 -3 11 10 -5 13
-1 17 14 17 11 0 17 4 14 10 -8 13 14 42 26 34 5 -3 9 0 9 6 0 6 4 9 9 6 5 -3
12 1 15 10 3 8 11 12 17 9 6 -4 10 -1 8 6 -4 31 2 48 14 43 15 -5 17 22 2 45
-5 10 -4 12 3 7 7 -4 12 -1 12 9 0 8 7 18 15 21 8 4 12 10 9 16 -3 5 3 18 15
29 24 23 27 35 9 42 -10 4 -10 6 0 6 7 1 10 6 7 11 -4 6 -1 9 7 8 9 -2 13 10
13 45 0 31 4 47 13 47 11 0 13 4 16 40 1 8 8 14 14 12 7 -1 12 3 11 10 -5 43
3 69 24 78 12 5 17 9 12 9 -6 1 -9 20 -7 46 2 25 8 43 13 40 4 -3 13 3 19 14
5 11 6 22 2 25 -7 4 -9 106 -2 114 3 3 3 51 0 55 -8 9 -4 67 5 67 7 0 7 3 0 8
-6 4 -11 27 -11 52 0 25 5 48 11 52 7 5 7 8 0 8 -6 0 -11 9 -11 20 0 11 4 20
9 20 4 0 5 5 1 12 -4 6 -8 23 -10 37 -1 14 -2 30 -3 34 -1 5 -5 5 -11 2 -10
-6 -13 6 -12 63 0 19 -2 31 -5 29 -13 -14 -30 19 -22 45 5 17 4 28 -2 28 -6 0
-7 5 -4 10 3 6 0 13 -8 16 -8 3 -13 17 -12 32 2 33 -4 54 -15 47 -4 -3 -10 2
-14 10 -3 8 -1 15 5 15 6 0 7 6 3 12 -5 7 -8 24 -8 38 -1 15 -6 24 -14 22 -8
-1 -12 3 -9 10 6 17 -12 50 -23 43 -4 -3 -8 9 -8 27 1 64 -2 78 -16 78 -8 0
-17 7 -20 16 -3 8 -11 12 -17 9 -7 -5 -9 1 -7 16 2 15 -2 23 -9 21 -11 -2 -18
17 -14 41 1 7 -4 8 -39 11 -8 1 -14 7 -12 14 1 7 -5 12 -13 12 -8 0 -15 5 -15
10 0 6 -6 10 -14 10 -8 0 -17 7 -20 16 -4 10 -2 13 7 8 9 -6 9 -5 0 8 -7 8 -9
18 -5 22 4 4 1 6 -7 4 -8 -1 -17 6 -19 16 -5 22 -52 72 -52 55 0 -7 -5 -8 -12
-3 -7 5 -25 9 -40 8 -15 0 -29 5 -32 13 -3 8 -11 11 -16 8 -6 -4 -9 -1 -8 6 3
13 -3 15 -43 18 -11 0 -17 6 -14 11 3 6 -1 10 -10 10 -9 0 -13 5 -10 10 3 6 4
10 1 10 -3 0 -8 -5 -12 -11z"/>
</g>
</svg>
