<svg width="812" height="475" viewBox="0 0 812 475" fill="none" xmlns="http://www.w3.org/2000/svg">
<rect x="0.5" y="0.5" width="749" height="474" rx="33.5" fill="#FFB340" stroke="black"/>
<path d="M47.8 85V56.584H54.904V49.48H47.8V44.744H50.168V42.376H57.272V37.64H45.432V40.008H43.064V42.376H40.696V49.48H35.96V56.584H40.696V85H47.8ZM43.064 82.632V54.216H38.328V51.848H43.064V44.744H45.432V51.848H52.536V54.216H45.432V82.632H43.064ZM68.1269 77.896V75.528H65.7589V58.952H68.1269V56.584H77.5989V58.952H79.9669V61.32H82.3349V73.16H79.9669V75.528H77.5989V77.896H68.1269ZM77.5989 85V82.632H79.9669V80.264H82.3349V85H89.4389V49.48H82.3349V54.216H79.9669V51.848H77.5989V49.48H68.1269V51.848H63.3909V54.216H61.0229V58.952H58.6549V75.528H61.0229V80.264H63.3909V82.632H68.1269V85H77.5989ZM82.3349 77.896V75.528H84.7029V58.952H82.3349V56.584H84.7029V51.848H87.0709V82.632H84.7029V77.896H82.3349ZM63.3909 61.32V73.16H61.0229V61.32H63.3909ZM70.4949 54.216V51.848H75.2309V54.216H70.4949ZM70.4949 82.632V80.264H75.2309V82.632H70.4949ZM104.519 85V37.64H97.4153V85H104.519ZM99.7833 82.632V40.008H102.151V82.632H99.7833ZM120.201 85V37.64H113.097V85H120.201ZM115.465 82.632V40.008H117.833V82.632H115.465ZM182.875 85V77.896H161.563V75.528H163.931V73.16H166.299V70.792H168.667V68.424H171.035V66.056H173.403V63.688H175.771V61.32H178.139V58.952H180.507V44.744H178.139V42.376H175.771V40.008H173.403V37.64H159.195V40.008H156.827V42.376H154.459V44.744H152.091V49.48H149.723V54.216H156.827V49.48H159.195V47.112H161.563V44.744H171.035V47.112H173.403V56.584H171.035V58.952H168.667V61.32H166.299V63.688H163.931V66.056H161.563V68.424H159.195V70.792H156.827V73.16H154.459V75.528H152.091V77.896H149.723V85H182.875ZM152.091 82.632V80.264H154.459V77.896H156.827V75.528H159.195V80.264H180.507V82.632H152.091ZM171.035 42.376H161.563V40.008H171.035V42.376ZM175.771 56.584V47.112H178.139V56.584H175.771ZM201.738 77.896V75.528H199.37V68.424H197.002V54.216H199.37V47.112H201.738V44.744H213.578V47.112H215.946V54.216H218.314V68.424H215.946V75.528H213.578V77.896H201.738ZM215.946 85V82.632H220.682V77.896H223.05V70.792H225.418V51.848H223.05V44.744H220.682V40.008H215.946V37.64H199.37V40.008H194.634V44.744H192.266V51.848H189.898V70.792H192.266V77.896H194.634V82.632H199.37V85H215.946ZM220.682 68.424V54.216H223.05V68.424H220.682ZM194.634 54.216V68.424H192.266V54.216H194.634ZM201.738 82.632V80.264H213.578V82.632H201.738ZM213.578 42.376H201.738V40.008H213.578V42.376ZM194.634 75.528V70.792H197.002V75.528H194.634ZM197.002 47.112V51.848H194.634V47.112H197.002ZM220.682 51.848H218.314V47.112H220.682V51.848ZM218.314 75.528V70.792H220.682V75.528H218.314ZM197.002 42.376H199.37V44.744H197.002V42.376ZM215.946 80.264V77.896H218.314V80.264H215.946ZM218.314 44.744H215.946V42.376H218.314V44.744ZM197.002 80.264V77.896H199.37V80.264H197.002ZM245.412 85V37.64H238.308V40.008H235.94V42.376H233.572V44.744H231.204V49.48H238.308V85H245.412ZM240.676 82.632V47.112H235.94V44.744H238.308V42.376H240.676V40.008H243.044V82.632H240.676ZM263.191 58.952V56.584H260.823V47.112H263.191V44.744H275.031V47.112H277.399V56.584H275.031V58.952H263.191ZM277.399 85V82.632H282.135V77.896H284.503V70.792H286.871V51.848H284.503V44.744H282.135V40.008H277.399V37.64H260.823V40.008H256.087V47.112H253.719V58.952H256.087V63.688H258.455V66.056H275.031V63.688H277.399V61.32H279.767V68.424H277.399V75.528H275.031V77.896H263.191V75.528H260.823V73.16H253.719V77.896H256.087V82.632H260.823V85H277.399ZM282.135 68.424V58.952H279.767V47.112H282.135V54.216H284.503V68.424H282.135ZM272.663 61.32V63.688H260.823V61.32H258.455V58.952H260.823V61.32H272.663ZM263.191 82.632V80.264H275.031V82.632H263.191ZM275.031 42.376H263.191V40.008H275.031V42.376ZM258.455 49.48V56.584H256.087V49.48H258.455ZM279.767 75.528V70.792H282.135V75.528H279.767ZM260.823 80.264H258.455V77.896H260.823V80.264ZM279.767 44.744H277.399V42.376H279.767V44.744ZM258.455 42.376H260.823V44.744H258.455V42.376ZM277.399 80.264V77.896H279.767V80.264H277.399Z" fill="black"/>
<path d="M35.9502 219V185.875H44.2314V190.844H45.8877V194.156H47.5439V199.125H49.2002V204.094H50.8564V210.719H52.5127V204.094H54.1689V199.125H55.8252V194.156H57.4814V190.844H59.1377V185.875H67.4189V219H62.4502V194.156H60.7939V197.469H59.1377V204.094H57.4814V210.719H55.8252V215.688H54.1689V219H49.2002V215.688H47.5439V210.719H45.8877V204.094H44.2314V197.469H42.5752V194.156H40.9189V219H35.9502ZM85.8965 214.031V212.375H87.5527V210.719H89.209V202.438H87.5527V200.781H85.8965V199.125H79.2715V200.781H77.6152V212.375H79.2715V214.031H85.8965ZM79.2715 219V217.344H75.959V215.688H74.3027V212.375H72.6465V200.781H74.3027V197.469H75.959V195.812H79.2715V194.156H85.8965V195.812H87.5527V197.469H89.209V194.156H94.1777V219H89.209V215.688H87.5527V217.344H85.8965V219H79.2715ZM102.2 219V199.125H98.8877V194.156H102.2V187.531H107.169V194.156H113.794V199.125H107.169V219H102.2ZM118.452 219V185.875H123.421V197.469H125.077V195.812H126.733V194.156H133.358V195.812H136.671V197.469H138.327V200.781H139.983V219H135.015V200.781H133.358V199.125H126.733V200.781H125.077V202.438H123.421V219H118.452ZM159.548 204.094V200.781H157.892V199.125H151.267V200.781H149.61V204.094H159.548ZM151.267 219V217.344H147.954V215.688H146.298V212.375H144.642V200.781H146.298V197.469H147.954V195.812H151.267V194.156H157.892V195.812H161.204V197.469H162.86V200.781H164.517V207.406H149.61V212.375H151.267V214.031H157.892V212.375H159.548V210.719H164.517V214.031H162.86V215.688H161.204V217.344H157.892V219H151.267ZM169.434 219V194.156H174.402V197.469H176.059V195.812H177.715V194.156H182.684V195.812H184.34V197.469H187.652V195.812H189.309V194.156H195.934V195.812H197.59V197.469H199.246V200.781H200.902V219H195.934V200.781H194.277V199.125H189.309V200.781H187.652V219H182.684V200.781H181.027V199.125H177.715V200.781H176.059V202.438H174.402V219H169.434ZM218.811 214.031V212.375H220.467V210.719H222.123V202.438H220.467V200.781H218.811V199.125H212.186V200.781H210.529V212.375H212.186V214.031H218.811ZM212.186 219V217.344H208.873V215.688H207.217V212.375H205.561V200.781H207.217V197.469H208.873V195.812H212.186V194.156H218.811V195.812H220.467V197.469H222.123V194.156H227.092V219H222.123V215.688H220.467V217.344H218.811V219H212.186ZM235.114 219V199.125H231.802V194.156H235.114V187.531H240.083V194.156H246.708V199.125H240.083V219H235.114ZM251.366 219V194.156H256.335V219H251.366ZM251.366 190.844V185.875H256.335V190.844H251.366ZM268.188 219V217.344H264.875V215.688H263.219V212.375H261.562V200.781H263.219V197.469H264.875V195.812H268.188V194.156H274.812V195.812H278.125V197.469H279.781V202.438H276.469V200.781H274.812V199.125H268.188V200.781H266.531V212.375H268.188V214.031H274.812V212.375H276.469V210.719H279.781V215.688H278.125V217.344H274.812V219H268.188ZM288.011 219V217.344H286.354V215.688H284.698V212.375H286.354V210.719H288.011V212.375H289.667V214.031H291.323V215.688H294.636V214.031H296.292V210.719H294.636V209.062H292.979V207.406H289.667V205.75H288.011V204.094H286.354V202.438H284.698V197.469H286.354V195.812H288.011V194.156H297.948V195.812H299.604V200.781H296.292V199.125H294.636V197.469H291.323V199.125H289.667V200.781H291.323V202.438H292.979V204.094H296.292V205.75H297.948V207.406H299.604V209.062H301.261V215.688H299.604V217.344H297.948V219H288.011ZM333.92 214.031V212.375H335.576V200.781H333.92V199.125H327.295V200.781H325.639V212.375H327.295V214.031H333.92ZM327.295 219V217.344H323.982V215.688H322.326V212.375H320.67V200.781H322.326V197.469H323.982V195.812H327.295V194.156H333.92V195.812H337.232V197.469H338.889V200.781H340.545V212.375H338.889V215.688H337.232V217.344H333.92V219H327.295ZM345.928 219V199.125H342.615V194.156H345.928V189.188H347.584V187.531H349.24V185.875H357.521V189.188H352.553V190.844H350.896V194.156H355.865V199.125H350.896V219H345.928ZM389.456 219V217.344H384.487V215.688H382.831V214.031H381.175V212.375H379.519V209.062H377.862V195.812H379.519V192.5H381.175V190.844H382.831V189.188H384.487V187.531H389.456V185.875H397.737V187.531H402.706V189.188H404.362V192.5H406.019V194.156H407.675V195.812H401.05V194.156H399.394V192.5H396.081V190.844H391.112V192.5H387.8V194.156H386.144V195.812H384.487V199.125H382.831V205.75H384.487V209.062H386.144V210.719H387.8V212.375H391.112V214.031H396.081V212.375H399.394V210.719H401.05V209.062H407.675V210.719H406.019V212.375H404.362V215.688H402.706V217.344H397.737V219H389.456ZM419.113 219V217.344H415.801V215.688H414.145V214.031H412.488V210.719H417.457V212.375H419.113V214.031H427.395V212.375H429.051V207.406H427.395V205.75H425.738V204.094H420.77V202.438H415.801V200.781H414.145V199.125H412.488V190.844H414.145V189.188H415.801V187.531H417.457V185.875H429.051V187.531H430.707V189.188H432.363V192.5H427.395V190.844H419.113V192.5H417.457V197.469H420.77V199.125H425.738V200.781H429.051V202.438H432.363V205.75H434.02V214.031H432.363V215.688H430.707V217.344H427.395V219H419.113ZM437.85 219V214.031H442.818V219H437.85ZM446.7 219V214.031H451.669V219H446.7ZM455.551 219V214.031H460.52V219H455.551ZM464.401 219V214.031H469.37V219H464.401ZM473.252 219V214.031H478.221V219H473.252ZM482.103 219V214.031H487.071V219H482.103ZM490.953 219V214.031H495.922V219H490.953ZM499.804 219V214.031H504.772V219H499.804ZM508.654 219V214.031H513.623V219H508.654ZM517.505 219V214.031H522.474V219H517.505ZM526.355 219V214.031H531.324V219H526.355ZM535.206 219V214.031H540.175V219H535.206ZM544.057 219V214.031H549.025V219H544.057ZM552.907 219V214.031H557.876V219H552.907ZM561.758 219V214.031H566.727V219H561.758ZM570.608 219V214.031H575.577V219H570.608ZM579.459 219V214.031H584.428V219H579.459ZM588.31 219V214.031H593.278V219H588.31ZM614.758 214.031V212.375H616.414V205.75H614.758V204.094H606.477V205.75H604.82V212.375H606.477V214.031H614.758ZM604.82 219V217.344H601.508V214.031H599.852V209.062H598.195V195.812H599.852V190.844H601.508V187.531H604.82V185.875H616.414V187.531H619.727V190.844H621.383V194.156H616.414V192.5H614.758V190.844H606.477V192.5H604.82V197.469H603.164V202.438H604.82V200.781H606.477V199.125H618.07V200.781H619.727V202.438H621.383V214.031H619.727V217.344H616.414V219H604.82ZM625.834 219V214.031H630.803V219H625.834ZM652.282 214.031V212.375H653.938V207.406H655.595V197.469H653.938V192.5H652.282V190.844H644.001V192.5H642.345V197.469H640.688V207.406H642.345V212.375H644.001V214.031H652.282ZM642.345 219V217.344H639.032V214.031H637.376V209.062H635.72V195.812H637.376V190.844H639.032V187.531H642.345V185.875H653.938V187.531H657.251V190.844H658.907V195.812H660.563V209.062H658.907V214.031H657.251V217.344H653.938V219H642.345ZM679.196 205.75V194.156H677.54V195.812H675.884V197.469H674.228V199.125H672.571V200.781H670.915V202.438H669.259V205.75H679.196ZM679.196 219V210.719H664.29V200.781H665.946V199.125H667.603V197.469H669.259V195.812H670.915V194.156H672.571V192.5H674.228V190.844H675.884V189.188H677.54V187.531H679.196V185.875H684.165V205.75H689.134V210.719H684.165V219H679.196ZM693.223 219V214.031H694.879V212.375H696.535V210.719H698.191V209.062H699.848V207.406H701.504V205.75H703.16V204.094H704.816V202.438H706.473V200.781H708.129V199.125H709.785V192.5H708.129V190.844H701.504V192.5H699.848V194.156H698.191V197.469H693.223V194.156H694.879V190.844H696.535V189.188H698.191V187.531H699.848V185.875H709.785V187.531H711.441V189.188H713.098V190.844H714.754V200.781H713.098V202.438H711.441V204.094H709.785V205.75H708.129V207.406H706.473V209.062H704.816V210.719H703.16V212.375H701.504V214.031H716.41V219H693.223ZM49.2002 267.031V265.375H52.5127V263.719H54.1689V262.062H55.8252V258.75H57.4814V252.125H55.8252V248.812H54.1689V247.156H52.5127V245.5H49.2002V243.844H40.9189V267.031H49.2002ZM35.9502 272V238.875H50.8564V240.531H55.8252V242.188H57.4814V243.844H59.1377V245.5H60.7939V248.812H62.4502V262.062H60.7939V265.375H59.1377V267.031H57.4814V268.688H55.8252V270.344H50.8564V272H35.9502ZM67.7812 272V247.156H72.75V272H67.7812ZM67.7812 243.844V238.875H72.75V243.844H67.7812ZM81.29 272V252.125H77.9775V247.156H81.29V242.188H82.9463V240.531H84.6025V238.875H96.1963H99.5088H104.478V242.188H99.5088V243.844H97.8525V247.156H102.821V252.125H97.8525V272H92.8838V252.125H87.915H86.2588V272H81.29ZM92.8838 247.156V242.188H87.915V243.844H86.2588V247.156H87.915H92.8838ZM119.798 257.094V253.781H118.142V252.125H111.517V253.781H109.86V257.094H119.798ZM111.517 272V270.344H108.204V268.688H106.548V265.375H104.892V253.781H106.548V250.469H108.204V248.812H111.517V247.156H118.142V248.812H121.454V250.469H123.11V253.781H124.767V260.406H109.86V265.375H111.517V267.031H118.142V265.375H119.798V263.719H124.767V267.031H123.11V268.688H121.454V270.344H118.142V272H111.517ZM129.684 272V247.156H134.652V250.469H136.309V248.812H137.965V247.156H144.59V248.812H146.246V250.469H147.902V253.781H146.246V255.438H144.59V253.781H142.934V252.125H137.965V253.781H136.309V255.438H134.652V272H129.684ZM165.086 257.094V253.781H163.43V252.125H156.805V253.781H155.148V257.094H165.086ZM156.805 272V270.344H153.492V268.688H151.836V265.375H150.18V253.781H151.836V250.469H153.492V248.812H156.805V247.156H163.43V248.812H166.742V250.469H168.398V253.781H170.055V260.406H155.148V265.375H156.805V267.031H163.43V265.375H165.086V263.719H170.055V267.031H168.398V268.688H166.742V270.344H163.43V272H156.805ZM174.972 272V247.156H179.94V250.469H181.597V248.812H183.253V247.156H188.222V248.812H191.534V250.469H193.19V253.781H194.847V272H189.878V253.781H188.222V252.125H183.253V253.781H181.597V255.438H179.94V272H174.972ZM202.714 272V252.125H199.401V247.156H202.714V240.531H207.683V247.156H214.308V252.125H207.683V272H202.714ZM218.966 272V247.156H223.935V272H218.966ZM218.966 243.844V238.875H223.935V243.844H218.966ZM242.412 267.031V265.375H244.068V263.719H245.725V255.438H244.068V253.781H242.412V252.125H235.787V253.781H234.131V265.375H235.787V267.031H242.412ZM235.787 272V270.344H232.475V268.688H230.818V265.375H229.162V253.781H230.818V250.469H232.475V248.812H235.787V247.156H242.412V248.812H244.068V250.469H245.725V247.156H250.693V272H245.725V268.688H244.068V270.344H242.412V272H235.787ZM256.283 272V238.875H261.252V272H256.283ZM282.266 272V238.875H302.141V243.844H287.234V252.125H302.141V257.094H287.234V267.031H302.141V272H282.266ZM320.618 267.031V265.375H322.274V263.719H323.931V255.438H322.274V253.781H320.618V252.125H313.993V253.781H312.337V265.375H313.993V267.031H320.618ZM323.931 281.938V268.688H322.274V270.344H320.618V272H313.993V270.344H310.681V268.688H309.024V265.375H307.368V253.781H309.024V250.469H310.681V248.812H313.993V247.156H320.618V248.812H322.274V250.469H323.931V247.156H328.899V281.938H323.931ZM337.854 272V270.344H336.197V268.688H334.541V247.156H339.51V265.375H341.166V267.031H346.135V265.375H347.791V263.719H349.447V247.156H354.416V272H349.447V268.688H347.791V270.344H346.135V272H337.854ZM372.479 267.031V265.375H374.136V263.719H375.792V255.438H374.136V253.781H372.479V252.125H365.854V253.781H364.198V265.375H365.854V267.031H372.479ZM365.854 272V270.344H362.542V268.688H360.886V265.375H359.229V253.781H360.886V250.469H362.542V248.812H365.854V247.156H372.479V248.812H374.136V250.469H375.792V247.156H380.761V272H375.792V268.688H374.136V270.344H372.479V272H365.854ZM388.783 272V252.125H385.471V247.156H388.783V240.531H393.752V247.156H400.377V252.125H393.752V272H388.783ZM405.035 272V247.156H410.004V272H405.035ZM405.035 243.844V238.875H410.004V243.844H405.035ZM428.481 267.031V265.375H430.138V253.781H428.481V252.125H421.856V253.781H420.2V265.375H421.856V267.031H428.481ZM421.856 272V270.344H418.544V268.688H416.888V265.375H415.231V253.781H416.888V250.469H418.544V248.812H421.856V247.156H428.481V248.812H431.794V250.469H433.45V253.781H435.106V265.375H433.45V268.688H431.794V270.344H428.481V272H421.856ZM439.972 272V247.156H444.94V250.469H446.597V248.812H448.253V247.156H453.222V248.812H456.534V250.469H458.19V253.781H459.847V272H454.878V253.781H453.222V252.125H448.253V253.781H446.597V255.438H444.94V272H439.972ZM468.128 272V270.344H466.472V268.688H464.815V265.375H466.472V263.719H468.128V265.375H469.784V267.031H471.44V268.688H474.753V267.031H476.409V263.719H474.753V262.062H473.097V260.406H469.784V258.75H468.128V257.094H466.472V255.438H464.815V250.469H466.472V248.812H468.128V247.156H478.065V248.812H479.722V253.781H476.409V252.125H474.753V250.469H471.44V252.125H469.784V253.781H471.44V255.438H473.097V257.094H476.409V258.75H478.065V260.406H479.722V262.062H481.378V268.688H479.722V270.344H478.065V272H468.128ZM485.001 272V267.031H489.97V272H485.001ZM493.852 272V267.031H498.82V272H493.852ZM502.702 272V267.031H507.671V272H502.702ZM511.553 272V267.031H516.521V272H511.553ZM520.403 272V267.031H525.372V272H520.403ZM529.254 272V267.031H534.223V272H529.254ZM538.104 272V267.031H543.073V272H538.104ZM546.955 272V267.031H551.924V272H546.955ZM555.806 272V267.031H560.774V272H555.806ZM564.656 272V267.031H569.625V272H564.656ZM573.507 272V267.031H578.476V272H573.507ZM582.357 272V267.031H587.326V272H582.357ZM591.208 272V267.031H596.177V272H591.208ZM600.059 272V267.031H605.027V272H600.059ZM614.033 272V247.156H609.064V243.844H610.721V242.188H612.377V240.531H614.033V238.875H619.002V272H614.033ZM640.947 267.031V265.375H642.604V258.75H640.947V257.094H639.291V255.438H632.666V257.094H631.01V258.75H629.354V265.375H631.01V267.031H640.947ZM639.291 252.125V250.469H640.947V245.5H639.291V243.844H632.666V245.5H631.01V250.469H632.666V252.125H639.291ZM631.01 272V270.344H627.697V268.688H626.041V265.375H624.385V258.75H626.041V255.438H627.697V253.781H629.354V252.125H627.697V250.469H626.041V245.5H627.697V242.188H629.354V240.531H632.666V238.875H639.291V240.531H642.604V242.188H644.26V245.5H645.916V250.469H644.26V252.125H642.604V253.781H644.26V255.438H645.916V258.75H647.572V265.375H645.916V268.688H644.26V270.344H640.947V272H631.01ZM651.247 272V267.031H656.216V272H651.247ZM677.695 267.031V265.375H679.352V260.406H681.008V250.469H679.352V245.5H677.695V243.844H669.414V245.5H667.758V250.469H666.102V260.406H667.758V265.375H669.414V267.031H677.695ZM667.758 272V270.344H664.445V267.031H662.789V262.062H661.133V248.812H662.789V243.844H664.445V240.531H667.758V238.875H679.352V240.531H682.664V243.844H684.32V248.812H685.977V262.062H684.32V267.031H682.664V270.344H679.352V272H667.758ZM695.914 272V270.344H694.258V268.688H692.602V267.031H690.945V263.719H695.914V265.375H697.57V267.031H705.852V265.375H707.508V258.75H705.852V257.094H699.227V252.125H705.852V250.469H707.508V245.5H705.852V243.844H697.57V245.5H695.914V247.156H690.945V243.844H692.602V242.188H694.258V240.531H695.914V238.875H705.852V240.531H709.164V242.188H710.82V243.844H712.477V252.125H710.82V253.781H709.164V255.438H710.82V257.094H712.477V267.031H710.82V268.688H709.164V270.344H705.852V272H695.914ZM55.4629 310.094V308.438H53.8066V305.125H52.1504V301.812H50.4941V298.5H48.8379V301.812H47.1816V305.125H45.5254V308.438H43.8691V310.094H55.4629ZM33.9316 325V320.031H35.5879V316.719H37.2441V311.75H38.9004V308.438H40.5566V305.125H42.2129V301.812H43.8691V298.5H45.5254V295.188H47.1816V291.875H52.1504V295.188H53.8066V298.5H55.4629V301.812H57.1191V305.125H58.7754V308.438H60.4316V311.75H62.0879V316.719H63.7441V320.031H65.4004V325H60.4316V321.688H58.7754V318.375H57.1191V315.062H42.2129V318.375H40.5566V321.688H38.9004V325H33.9316ZM83.1016 320.031V318.375H84.7578V316.719H86.4141V308.438H84.7578V306.781H83.1016V305.125H76.4766V306.781H74.8203V318.375H76.4766V320.031H83.1016ZM76.4766 325V323.344H73.1641V321.688H71.5078V318.375H69.8516V306.781H71.5078V303.469H73.1641V301.812H76.4766V300.156H83.1016V301.812H84.7578V303.469H86.4141V291.875H91.3828V325H86.4141V321.688H84.7578V323.344H83.1016V325H76.4766ZM103.028 325V321.688H101.372V316.719H99.7158V310.094H98.0596V305.125H96.4033V300.156H101.372V303.469H103.028V310.094H104.685V315.062H106.341V320.031H107.997V315.062H109.653V310.094H111.31V303.469H112.966V300.156H117.935V305.125H116.278V310.094H114.622V316.719H112.966V321.688H111.31V325H103.028ZM135.325 320.031V318.375H136.981V316.719H138.638V308.438H136.981V306.781H135.325V305.125H128.7V306.781H127.044V318.375H128.7V320.031H135.325ZM128.7 325V323.344H125.388V321.688H123.731V318.375H122.075V306.781H123.731V303.469H125.388V301.812H128.7V300.156H135.325V301.812H136.981V303.469H138.638V300.156H143.606V325H138.638V321.688H136.981V323.344H135.325V325H128.7ZM148.989 325V300.156H153.958V303.469H155.614V301.812H157.271V300.156H162.239V301.812H165.552V303.469H167.208V306.781H168.864V325H163.896V306.781H162.239V305.125H157.271V306.781H155.614V308.438H153.958V325H148.989ZM180.147 325V323.344H176.835V321.688H175.179V318.375H173.522V306.781H175.179V303.469H176.835V301.812H180.147V300.156H186.772V301.812H190.085V303.469H191.741V308.438H188.429V306.781H186.772V305.125H180.147V306.781H178.491V318.375H180.147V320.031H186.772V318.375H188.429V316.719H191.741V321.688H190.085V323.344H186.772V325H180.147ZM211.254 310.094V306.781H209.598V305.125H202.973V306.781H201.316V310.094H211.254ZM202.973 325V323.344H199.66V321.688H198.004V318.375H196.348V306.781H198.004V303.469H199.66V301.812H202.973V300.156H209.598V301.812H212.91V303.469H214.566V306.781H216.223V313.406H201.316V318.375H202.973V320.031H209.598V318.375H211.254V316.719H216.223V320.031H214.566V321.688H212.91V323.344H209.598V325H202.973ZM233.613 320.031V318.375H235.27V316.719H236.926V308.438H235.27V306.781H233.613V305.125H226.988V306.781H225.332V318.375H226.988V320.031H233.613ZM226.988 325V323.344H223.676V321.688H222.02V318.375H220.363V306.781H222.02V303.469H223.676V301.812H226.988V300.156H233.613V301.812H235.27V303.469H236.926V291.875H241.895V325H236.926V321.688H235.27V323.344H233.613V325H226.988ZM279.471 305.125V303.469H281.127V298.5H279.471V296.844H267.877V305.125H279.471ZM262.908 325V291.875H281.127V293.531H282.783V295.188H284.439V296.844H286.096V305.125H284.439V306.781H282.783V308.438H281.127V310.094H267.877V325H262.908ZM289.305 325V291.875H294.273V303.469H295.93V301.812H297.586V300.156H304.211V301.812H307.523V303.469H309.18V306.781H310.836V325H305.867V306.781H304.211V305.125H297.586V306.781H295.93V308.438H294.273V325H289.305ZM320.256 334.938V329.969H321.912V325H323.568V321.688H321.912V318.375H320.256V315.062H318.6V310.094H316.943V305.125H315.287V300.156H320.256V305.125H321.912V310.094H323.568V315.062H325.225V316.719H326.881V310.094H328.537V305.125H330.193V300.156H335.162V305.125H333.506V310.094H331.85V315.062H330.193V320.031H328.537V325H326.881V329.969H325.225V334.938H320.256ZM342.926 325V323.344H341.27V321.688H339.613V318.375H341.27V316.719H342.926V318.375H344.582V320.031H346.238V321.688H349.551V320.031H351.207V316.719H349.551V315.062H347.895V313.406H344.582V311.75H342.926V310.094H341.27V308.438H339.613V303.469H341.27V301.812H342.926V300.156H352.863V301.812H354.52V306.781H351.207V305.125H349.551V303.469H346.238V305.125H344.582V306.781H346.238V308.438H347.895V310.094H351.207V311.75H352.863V313.406H354.52V315.062H356.176V321.688H354.52V323.344H352.863V325H342.926ZM361.352 325V300.156H366.32V325H361.352ZM361.352 296.844V291.875H366.32V296.844H361.352ZM378.173 325V323.344H374.86V321.688H373.204V318.375H371.548V306.781H373.204V303.469H374.86V301.812H378.173V300.156H384.798V301.812H388.11V303.469H389.767V308.438H386.454V306.781H384.798V305.125H378.173V306.781H376.517V318.375H378.173V320.031H384.798V318.375H386.454V316.719H389.767V321.688H388.11V323.344H384.798V325H378.173ZM397.996 325V323.344H396.34V321.688H394.684V318.375H396.34V316.719H397.996V318.375H399.652V320.031H401.309V321.688H404.621V320.031H406.277V316.719H404.621V315.062H402.965V313.406H399.652V311.75H397.996V310.094H396.34V308.438H394.684V303.469H396.34V301.812H397.996V300.156H407.934V301.812H409.59V306.781H406.277V305.125H404.621V303.469H401.309V305.125H399.652V306.781H401.309V308.438H402.965V310.094H406.277V311.75H407.934V313.406H409.59V315.062H411.246V321.688H409.59V323.344H407.934V325H397.996ZM431.069 325V320.031H432.726V318.375H434.382V316.719H436.038V315.062H437.694V313.406H439.351V311.75H441.007V310.094H442.663V308.438H444.319V306.781H445.976V305.125H447.632V298.5H445.976V296.844H439.351V298.5H437.694V300.156H436.038V303.469H431.069V300.156H432.726V296.844H434.382V295.188H436.038V293.531H437.694V291.875H447.632V293.531H449.288V295.188H450.944V296.844H452.601V306.781H450.944V308.438H449.288V310.094H447.632V311.75H445.976V313.406H444.319V315.062H442.663V316.719H441.007V318.375H439.351V320.031H454.257V325H431.069ZM458.139 325V320.031H463.107V325H458.139ZM466.989 325V320.031H471.958V325H466.989ZM475.84 325V320.031H480.809V325H475.84ZM484.69 325V320.031H489.659V325H484.69ZM493.541 325V320.031H498.51V325H493.541ZM502.392 325V320.031H507.36V325H502.392ZM511.242 325V320.031H516.211V325H511.242ZM520.093 325V320.031H525.062V325H520.093ZM528.943 325V320.031H533.912V325H528.943ZM537.794 325V320.031H542.763V325H537.794ZM546.645 325V320.031H551.613V325H546.645ZM555.495 325V320.031H560.464V325H555.495ZM564.346 325V320.031H569.314V325H564.346ZM573.196 325V320.031H578.165V325H573.196ZM582.047 325V320.031H587.016V325H582.047ZM590.897 325V320.031H595.866V325H590.897ZM617.242 320.031V318.375H618.898V311.75H617.242V310.094H615.586V308.438H608.961V310.094H607.305V311.75H605.648V318.375H607.305V320.031H617.242ZM615.586 305.125V303.469H617.242V298.5H615.586V296.844H608.961V298.5H607.305V303.469H608.961V305.125H615.586ZM607.305 325V323.344H603.992V321.688H602.336V318.375H600.68V311.75H602.336V308.438H603.992V306.781H605.648V305.125H603.992V303.469H602.336V298.5H603.992V295.188H605.648V293.531H608.961V291.875H615.586V293.531H618.898V295.188H620.555V298.5H622.211V303.469H620.555V305.125H618.898V306.781H620.555V308.438H622.211V311.75H623.867V318.375H622.211V321.688H620.555V323.344H617.242V325H607.305ZM627.542 325V320.031H632.511V325H627.542ZM653.99 320.031V318.375H655.646V313.406H657.303V303.469H655.646V298.5H653.99V296.844H645.709V298.5H644.053V303.469H642.396V313.406H644.053V318.375H645.709V320.031H653.99ZM644.053 325V323.344H640.74V320.031H639.084V315.062H637.428V301.812H639.084V296.844H640.74V293.531H644.053V291.875H655.646V293.531H658.959V296.844H660.615V301.812H662.271V315.062H660.615V320.031H658.959V323.344H655.646V325H644.053ZM667.344 325V320.031H669V318.375H670.656V316.719H672.312V315.062H673.969V313.406H675.625V311.75H677.281V310.094H678.938V308.438H680.594V306.781H682.25V305.125H683.906V298.5H682.25V296.844H675.625V298.5H673.969V300.156H672.312V303.469H667.344V300.156H669V296.844H670.656V295.188H672.312V293.531H673.969V291.875H683.906V293.531H685.562V295.188H687.219V296.844H688.875V306.781H687.219V308.438H685.562V310.094H683.906V311.75H682.25V313.406H680.594V315.062H678.938V316.719H677.281V318.375H675.625V320.031H690.531V325H667.344ZM695.604 325V320.031H697.26V318.375H698.916V316.719H700.572V315.062H702.229V313.406H703.885V311.75H705.541V310.094H707.197V308.438H708.854V306.781H710.51V305.125H712.166V298.5H710.51V296.844H703.885V298.5H702.229V300.156H700.572V303.469H695.604V300.156H697.26V296.844H698.916V295.188H700.572V293.531H702.229V291.875H712.166V293.531H713.822V295.188H715.479V296.844H717.135V306.781H715.479V308.438H713.822V310.094H712.166V311.75H710.51V313.406H708.854V315.062H707.197V316.719H705.541V318.375H703.885V320.031H718.791V325H695.604ZM35.9502 378V344.875H40.9189V378H35.9502ZM46.7158 378V353.156H51.6846V356.469H53.3408V354.812H54.9971V353.156H59.9658V354.812H63.2783V356.469H64.9346V359.781H66.5908V378H61.6221V359.781H59.9658V358.125H54.9971V359.781H53.3408V361.438H51.6846V378H46.7158ZM74.458 378V358.125H71.1455V353.156H74.458V346.531H79.4268V353.156H86.0518V358.125H79.4268V378H74.458ZM89.1055 378V353.156H94.0742V356.469H95.7305V354.812H97.3867V353.156H104.012V354.812H105.668V356.469H107.324V359.781H105.668V361.438H104.012V359.781H102.355V358.125H97.3867V359.781H95.7305V361.438H94.0742V378H89.1055ZM122.852 373.031V371.375H124.508V359.781H122.852V358.125H116.227V359.781H114.57V371.375H116.227V373.031H122.852ZM116.227 378V376.344H112.914V374.688H111.258V371.375H109.602V359.781H111.258V356.469H112.914V354.812H116.227V353.156H122.852V354.812H126.164V356.469H127.82V359.781H129.477V371.375H127.82V374.688H126.164V376.344H122.852V378H116.227ZM151.991 378V358.125H148.679V353.156H151.991V346.531H156.96V353.156H163.585V358.125H156.96V378H151.991ZM178.595 373.031V371.375H180.251V359.781H178.595V358.125H171.97V359.781H170.313V371.375H171.97V373.031H178.595ZM171.97 378V376.344H168.657V374.688H167.001V371.375H165.345V359.781H167.001V356.469H168.657V354.812H171.97V353.156H178.595V354.812H181.907V356.469H183.563V359.781H185.22V371.375H183.563V374.688H181.907V376.344H178.595V378H171.97ZM216.223 378V376.344H211.254V374.688H209.598V373.031H207.941V371.375H206.285V368.062H204.629V354.812H206.285V351.5H207.941V349.844H209.598V348.188H211.254V346.531H216.223V344.875H224.504V346.531H229.473V348.188H231.129V351.5H232.785V353.156H234.441V354.812H227.816V353.156H226.16V351.5H222.848V349.844H217.879V351.5H214.566V353.156H212.91V354.812H211.254V358.125H209.598V364.75H211.254V368.062H212.91V369.719H214.566V371.375H217.879V373.031H222.848V371.375H226.16V369.719H227.816V368.062H234.441V369.719H232.785V371.375H231.129V374.688H229.473V376.344H224.504V378H216.223ZM237.392 378V344.875H242.36V356.469H244.017V354.812H245.673V353.156H252.298V354.812H255.61V356.469H257.267V359.781H258.923V378H253.954V359.781H252.298V358.125H245.673V359.781H244.017V361.438H242.36V378H237.392ZM278.487 363.094V359.781H276.831V358.125H270.206V359.781H268.55V363.094H278.487ZM270.206 378V376.344H266.894V374.688H265.237V371.375H263.581V359.781H265.237V356.469H266.894V354.812H270.206V353.156H276.831V354.812H280.144V356.469H281.8V359.781H283.456V366.406H268.55V371.375H270.206V373.031H276.831V371.375H278.487V369.719H283.456V373.031H281.8V374.688H280.144V376.344H276.831V378H270.206ZM288.373 378V353.156H293.342V356.469H294.998V354.812H296.654V353.156H301.623V354.812H303.279V356.469H306.592V354.812H308.248V353.156H314.873V354.812H316.529V356.469H318.186V359.781H319.842V378H314.873V359.781H313.217V358.125H308.248V359.781H306.592V378H301.623V359.781H299.967V358.125H296.654V359.781H294.998V361.438H293.342V378H288.373ZM325.276 378V353.156H330.245V378H325.276ZM325.276 349.844V344.875H330.245V349.844H325.276ZM339.096 378V376.344H337.439V374.688H335.783V371.375H337.439V369.719H339.096V371.375H340.752V373.031H342.408V374.688H345.721V373.031H347.377V369.719H345.721V368.062H344.064V366.406H340.752V364.75H339.096V363.094H337.439V361.438H335.783V356.469H337.439V354.812H339.096V353.156H349.033V354.812H350.689V359.781H347.377V358.125H345.721V356.469H342.408V358.125H340.752V359.781H342.408V361.438H344.064V363.094H347.377V364.75H349.033V366.406H350.689V368.062H352.346V374.688H350.689V376.344H349.033V378H339.096ZM359.954 378V358.125H356.642V353.156H359.954V346.531H364.923V353.156H371.548V358.125H364.923V378H359.954ZM374.602 378V353.156H379.57V356.469H381.227V354.812H382.883V353.156H389.508V354.812H391.164V356.469H392.82V359.781H391.164V361.438H389.508V359.781H387.852V358.125H382.883V359.781H381.227V361.438H379.57V378H374.602ZM401.257 387.938V382.969H402.913V378H404.569V374.688H402.913V371.375H401.257V368.062H399.601V363.094H397.944V358.125H396.288V353.156H401.257V358.125H402.913V363.094H404.569V368.062H406.226V369.719H407.882V363.094H409.538V358.125H411.194V353.156H416.163V358.125H414.507V363.094H412.851V368.062H411.194V373.031H409.538V378H407.882V382.969H406.226V387.938H401.257ZM419.527 378V373.031H424.496V378H419.527ZM428.378 378V373.031H433.347V378H428.378ZM437.229 378V373.031H442.197V378H437.229ZM446.079 378V373.031H451.048V378H446.079ZM454.93 378V373.031H459.898V378H454.93ZM463.78 378V373.031H468.749V378H463.78ZM472.631 378V373.031H477.6V378H472.631ZM481.481 378V373.031H486.45V378H481.481ZM490.332 378V373.031H495.301V378H490.332ZM499.183 378V373.031H504.151V378H499.183ZM508.033 378V373.031H513.002V378H508.033ZM516.884 378V373.031H521.853V378H516.884ZM525.734 378V373.031H530.703V378H525.734ZM534.585 378V373.031H539.554V378H534.585ZM543.436 378V373.031H548.404V378H543.436ZM552.286 378V373.031H557.255V378H552.286ZM561.137 378V373.031H566.105V378H561.137ZM569.987 378V373.031H574.956V378H569.987ZM578.838 378V373.031H583.807V378H578.838ZM587.688 378V373.031H592.657V378H587.688ZM596.539 378V373.031H601.508V378H596.539ZM605.39 378V373.031H610.358V378H605.39ZM620.296 378V376.344H618.64V374.688H616.983V373.031H615.327V369.719H620.296V371.375H621.952V373.031H630.233V371.375H631.89V364.75H630.233V363.094H623.608V358.125H630.233V356.469H631.89V351.5H630.233V349.844H621.952V351.5H620.296V353.156H615.327V349.844H616.983V348.188H618.64V346.531H620.296V344.875H630.233V346.531H633.546V348.188H635.202V349.844H636.858V358.125H635.202V359.781H633.546V361.438H635.202V363.094H636.858V373.031H635.202V374.688H633.546V376.344H630.233V378H620.296ZM641.31 378V373.031H646.278V378H641.31ZM667.758 373.031V371.375H669.414V366.406H671.07V356.469H669.414V351.5H667.758V349.844H659.477V351.5H657.82V356.469H656.164V366.406H657.82V371.375H659.477V373.031H667.758ZM657.82 378V376.344H654.508V373.031H652.852V368.062H651.195V354.812H652.852V349.844H654.508V346.531H657.82V344.875H669.414V346.531H672.727V349.844H674.383V354.812H676.039V368.062H674.383V373.031H672.727V376.344H669.414V378H657.82ZM696.173 359.781V358.125H697.829V351.5H696.173V349.844H687.892V351.5H686.235V358.125H687.892V359.781H696.173ZM686.235 378V376.344H682.923V373.031H681.267V369.719H686.235V371.375H687.892V373.031H696.173V371.375H697.829V366.406H699.485V361.438H697.829V363.094H696.173V364.75H684.579V363.094H682.923V359.781H681.267V351.5H682.923V346.531H686.235V344.875H697.829V346.531H701.142V349.844H702.798V354.812H704.454V368.062H702.798V373.031H701.142V376.344H697.829V378H686.235ZM713.46 378V353.156H708.491V349.844H710.147V348.188H711.804V346.531H713.46V344.875H718.429V378H713.46Z" fill="black"/>
<path d="M799.701 41H750V142H799.701C814.26 142 815.264 41 799.701 41Z" stroke="black"/>
<path d="M770 66.4814H791.25V79.2314H788.062V69.6689H782.75V79.2314H779.562V69.6689H770V66.4814ZM770 82.8506H773.188V83.9131H774.25V84.9756H775.312V86.0381H776.375V87.1006H777.438V88.1631H778.5V89.2256H779.562V90.2881H780.625V91.3506H781.688V92.4131H782.75V93.4756H787V92.4131H788.062V88.1631H787V87.1006H785.938V86.0381H783.812V82.8506H785.938V83.9131H788.062V84.9756H789.125V86.0381H790.188V87.1006H791.25V93.4756H790.188V94.5381H789.125V95.6006H788.062V96.6631H781.688V95.6006H780.625V94.5381H779.562V93.4756H778.5V92.4131H777.438V91.3506H776.375V90.2881H775.312V89.2256H774.25V88.1631H773.188V97.7256H770V82.8506ZM773.188 111.505H774.25V112.567H777.438V113.63H783.812V112.567H787V111.505H788.062V106.192H787V105.13H783.812V104.067H777.438V105.13H774.25V106.192H773.188V111.505ZM770 105.13H771.062V103.005H773.188V101.942H776.375V100.88H784.875V101.942H788.062V103.005H790.188V105.13H791.25V112.567H790.188V114.692H788.062V115.755H784.875V116.817H776.375V115.755H773.188V114.692H771.062V112.567H770V105.13Z" fill="black"/>
<path d="M770 180.316H771.062V178.191H772.125V177.129H773.188V176.066H775.312V179.254H774.25V180.316H773.188V185.629H774.25V186.691H777.438V185.629H778.5V184.566H779.562V181.379H780.625V178.191H781.688V177.129H782.75V176.066H788.062V177.129H789.125V178.191H790.188V179.254H791.25V186.691H790.188V187.754H789.125V188.816H787V185.629H788.062V180.316H787V179.254H783.812V181.379H782.75V184.566H781.688V186.691H780.625V188.816H778.5V189.879H773.188V188.816H772.125V187.754H771.062V185.629H770V180.316ZM770 193.1H773.188V194.162H774.25V195.225H775.312V196.287H776.375V197.35H777.438V198.412H778.5V199.475H779.562V200.537H780.625V201.6H781.688V202.662H782.75V203.725H787V202.662H788.062V198.412H787V197.35H785.938V196.287H783.812V193.1H785.938V194.162H788.062V195.225H789.125V196.287H790.188V197.35H791.25V203.725H790.188V204.787H789.125V205.85H788.062V206.912H781.688V205.85H780.625V204.787H779.562V203.725H778.5V202.662H777.438V201.6H776.375V200.537H775.312V199.475H774.25V198.412H773.188V207.975H770V193.1ZM773.188 221.754H774.25V222.816H777.438V223.879H783.812V222.816H787V221.754H788.062V216.441H787V215.379H783.812V214.316H777.438V215.379H774.25V216.441H773.188V221.754ZM770 215.379H771.062V213.254H773.188V212.191H776.375V211.129H784.875V212.191H788.062V213.254H790.188V215.379H791.25V222.816H790.188V224.941H788.062V226.004H784.875V227.066H776.375V226.004H773.188V224.941H771.062V222.816H770V215.379Z" fill="black"/>
<path d="M799.701 151H750V252H799.701C814.26 252 815.264 151 799.701 151Z" stroke="black"/>
<path d="M799.701 261H750V362H799.701C814.26 362 815.264 261 799.701 261Z" fill="#FFB340" stroke="black"/>
<path d="M770 291.312H791.25V304.062H788.062V294.5H782.75V304.062H779.562V294.5H770V291.312ZM770 310.205H785.938V307.018H788.062V308.08H789.125V309.143H790.188V310.205H791.25V313.393H770V310.205ZM781.688 326.674H782.75V327.736H787V326.674H788.062V321.361H787V320.299H782.75V321.361H781.688V326.674ZM770 320.299H771.062V318.174H773.188V317.111H775.312V320.299H774.25V321.361H773.188V326.674H774.25V327.736H777.438V328.799H780.625V327.736H779.562V326.674H778.5V319.236H779.562V318.174H781.688V317.111H787V318.174H790.188V320.299H791.25V327.736H790.188V329.861H788.062V330.924H784.875V331.986H776.375V330.924H773.188V329.861H771.062V327.736H770V320.299Z" fill="black"/>
</svg>
